<svg width="16" height="17" viewBox="0 0 16 17" fill="none" xmlns="http://www.w3.org/2000/svg">
<path fill-rule="evenodd" clip-rule="evenodd" d="M5 1.33325C5.36819 1.33325 5.66667 1.63173 5.66667 1.99992V2.33326L10.3333 2.33327V1.99992C10.3333 1.63173 10.6318 1.33325 11 1.33325C11.3682 1.33325 11.6667 1.63173 11.6667 1.99992V2.33327L12.5 2.33327C13.9728 2.33328 15.1667 3.52718 15.1667 4.99994V12.9999C15.1667 14.4727 13.9728 15.6666 12.5 15.6666L3.5 15.6666C2.02724 15.6666 0.833336 14.4727 0.833336 12.9999L0.833336 6.50005L0.833336 4.99992C0.833336 3.52716 2.02725 2.33325 3.50001 2.33326L4.33333 2.33326V1.99992C4.33333 1.63173 4.63181 1.33325 5 1.33325ZM4.33333 3.66659L3.50001 3.66659C2.76362 3.66659 2.16667 4.26354 2.16667 4.99992V5.83325H13.8333V4.99994C13.8333 4.26356 13.2364 3.66661 12.5 3.66661L11.6667 3.66661V3.99992C11.6667 4.36811 11.3682 4.66659 11 4.66659C10.6318 4.66659 10.3333 4.36811 10.3333 3.99992V3.6666L5.66667 3.66659V3.99992C5.66667 4.36811 5.36819 4.66659 5 4.66659C4.63181 4.66659 4.33333 4.36811 4.33333 3.99992V3.66659ZM13.8333 7.16658H2.16667L2.16667 12.9999C2.16667 13.7363 2.76362 14.3333 3.5 14.3333L12.5 14.3333C13.2364 14.3333 13.8333 13.7363 13.8333 12.9999V7.16658Z" fill="#787A80"/>
</svg>
