<svg width="16" height="17" viewBox="0 0 16 17" fill="none" xmlns="http://www.w3.org/2000/svg">
<path d="M8.66667 4.83341C8.66667 4.46522 8.36819 4.16675 8 4.16675C7.63181 4.16675 7.33333 4.46522 7.33333 4.83341V8.50008C7.33333 8.67689 7.40357 8.84646 7.5286 8.97149L9.5286 10.9715C9.78895 11.2318 10.2111 11.2318 10.4714 10.9715C10.7318 10.7111 10.7318 10.289 10.4714 10.0287L8.66667 8.22394V4.83341Z" fill="#787A80"/>
<path fill-rule="evenodd" clip-rule="evenodd" d="M8 1.16675C3.94991 1.16675 0.666668 4.44999 0.666668 8.50008C0.666668 12.5502 3.94991 15.8334 8 15.8334C12.0501 15.8334 15.3333 12.5502 15.3333 8.50008C15.3333 4.44999 12.0501 1.16675 8 1.16675ZM2 8.50008C2 5.18637 4.68629 2.50008 8 2.50008C11.3137 2.50008 14 5.18637 14 8.50008C14 11.8138 11.3137 14.5001 8 14.5001C4.68629 14.5001 2 11.8138 2 8.50008Z" fill="#787A80"/>
</svg>
