<svg width="602" height="551" viewBox="0 0 602 551" fill="none" xmlns="http://www.w3.org/2000/svg">
<path d="M378.302 15.918L420.208 56.3535L462.326 284.295H67.2539L378.302 15.918Z" fill="#FFCF2D"/>
<path d="M420.568 56.036L378.535 15.4735L385.565 8.16972C395.92 -2.58485 414.575 -1.35696 425.333 8.9742C436.09 19.3265 437.974 37.9776 427.62 48.7322L420.568 56.036Z" fill="white"/>
<path d="M420.59 56.925L377.646 15.4945L385.12 7.72497C390.16 2.47471 397.339 -0.256271 405.343 0.0189438C413.009 0.294159 420.462 3.38504 425.799 8.50828C431.135 13.6315 434.502 20.9776 435.052 28.6413C435.624 36.6226 433.147 43.9052 428.107 49.1555L420.59 56.925ZM379.424 15.4522L420.547 55.1255L427.154 48.2875C431.961 43.3124 434.29 36.3685 433.761 28.7472C433.231 21.3799 430.013 14.3513 424.888 9.43977C419.764 4.52824 412.628 1.56438 405.28 1.31034C397.656 1.03512 390.817 3.63908 386.031 8.61413L379.424 15.4522Z" fill="#FFCF2D"/>
<path d="M427.599 49.367C427.43 49.367 427.281 49.3035 427.154 49.1977L385.1 8.63516C384.845 8.38112 384.845 8.00005 385.078 7.746C385.332 7.49196 385.735 7.49196 385.968 7.72483L428.022 48.2873C428.277 48.5414 428.277 48.9224 428.044 49.1765C427.938 49.3035 427.768 49.367 427.599 49.367Z" fill="#FFCF2D"/>
<path d="M508.828 283.193C508.743 283.193 508.659 283.172 508.574 283.13C508.256 282.982 508.108 282.601 508.256 282.283L567.23 150.772L451.929 10.455V10.4338C449.748 7.46997 446.551 5.56464 442.909 5.03538C439.266 4.50611 435.645 5.45878 432.723 7.70285L428.022 11.3018C427.747 11.5135 427.345 11.4712 427.133 11.1748C426.921 10.8996 426.963 10.4973 427.26 10.2856L431.961 6.68666C435.158 4.25207 439.118 3.21472 443.099 3.78632C447.08 4.35792 450.574 6.43262 452.946 9.67169L568.713 150.582L568.543 150.942L509.4 282.812C509.294 283.045 509.061 283.193 508.828 283.193Z" fill="#3FB1B5"/>
<path d="M566.087 157.865C569.665 157.865 572.566 154.964 572.566 151.386C572.566 147.809 569.665 144.908 566.087 144.908C562.508 144.908 559.607 147.809 559.607 151.386C559.607 154.964 562.508 157.865 566.087 157.865Z" fill="white"/>
<path d="M566.087 158.5C562.169 158.5 558.972 155.303 558.972 151.387C558.972 147.47 562.169 144.273 566.087 144.273C570.004 144.273 573.202 147.47 573.202 151.387C573.202 155.303 570.004 158.5 566.087 158.5ZM566.087 145.544C562.868 145.544 560.242 148.169 560.242 151.387C560.242 154.605 562.868 157.23 566.087 157.23C569.305 157.23 571.931 154.605 571.931 151.387C571.931 148.169 569.305 145.544 566.087 145.544Z" fill="#FFCF2D"/>
<path d="M492.396 267.824H523.969C533.053 267.824 540.401 275.192 540.401 284.252V284.718H475.942V284.252C475.964 275.192 483.311 267.824 492.396 267.824Z" fill="white"/>
<path d="M541.036 285.354H475.307V284.253C475.328 274.853 482.994 267.189 492.396 267.189H523.969C533.371 267.189 541.036 274.853 541.036 284.253V285.354V285.354ZM476.578 284.083H539.766C539.681 275.446 532.629 268.46 523.969 268.46H492.396C483.756 268.46 476.684 275.446 476.578 284.083Z" fill="#FFCF2D"/>
<path d="M339.444 236.639H139.568C132.051 236.639 125.974 230.563 125.974 223.048V83.2809C125.974 75.7654 132.051 69.6895 139.568 69.6895H339.444C346.962 69.6895 353.039 75.7654 353.039 83.2809V223.027C353.06 230.542 346.962 236.639 339.444 236.639Z" fill="white"/>
<path d="M339.444 237.275H139.568C131.712 237.275 125.338 230.902 125.338 223.048V83.2812C125.338 75.427 131.712 69.0547 139.568 69.0547H339.444C347.301 69.0547 353.674 75.427 353.674 83.2812V223.027C353.696 226.817 352.213 230.394 349.524 233.083C346.835 235.793 343.256 237.275 339.444 237.275ZM139.568 70.3249C132.432 70.3249 126.609 76.1468 126.609 83.2812V223.048C126.609 230.183 132.432 236.004 139.568 236.004H339.444C342.917 236.004 346.178 234.65 348.635 232.194C351.07 229.738 352.425 226.478 352.404 223.027V83.2812C352.404 76.1468 346.581 70.3249 339.444 70.3249H139.568Z" fill="#3FB1B5"/>
<path d="M339.572 223.641H141.623C138.679 223.641 136.308 221.248 136.308 218.327V84.6145C136.308 81.6719 138.7 79.3008 141.623 79.3008H339.572C342.515 79.3008 344.887 81.693 344.887 84.6145V218.306C344.908 221.248 342.515 223.641 339.572 223.641Z" fill="#66B0F0"/>
<path d="M339.572 224.276H141.623C138.34 224.276 135.672 221.609 135.672 218.327V84.6149C135.672 81.3335 138.34 78.666 141.623 78.666H339.572C342.854 78.666 345.522 81.3335 345.522 84.6149V218.306C345.543 219.894 344.929 221.397 343.807 222.519C342.663 223.641 341.181 224.276 339.572 224.276ZM141.623 79.9362C139.039 79.9362 136.943 82.0321 136.943 84.6149V218.327C136.943 220.91 139.039 223.006 141.623 223.006H339.572C340.821 223.006 342.007 222.519 342.896 221.63C343.786 220.741 344.252 219.576 344.252 218.327V84.6149C344.252 82.0321 342.155 79.9362 339.572 79.9362H141.623Z" fill="#66B0F0"/>
<path d="M148.716 92.4263H145.582C144.206 92.4263 143.083 91.3043 143.083 89.9282V86.795C143.083 85.4189 144.206 84.2969 145.582 84.2969H148.716C150.093 84.2969 151.215 85.4189 151.215 86.795V89.9282C151.194 91.3255 150.093 92.4263 148.716 92.4263ZM145.582 85.5671C144.905 85.5671 144.354 86.1175 144.354 86.795V89.9282C144.354 90.6057 144.905 91.1561 145.582 91.1561H148.716C149.394 91.1561 149.923 90.6057 149.944 89.907V86.795C149.944 86.1175 149.394 85.5671 148.716 85.5671H145.582V85.5671Z" fill="white"/>
<path d="M162.967 92.4263H159.833C158.457 92.4263 157.334 91.3043 157.334 89.9282V86.795C157.334 85.4189 158.457 84.2969 159.833 84.2969H162.967C164.344 84.2969 165.466 85.4189 165.466 86.795V89.9282C165.466 91.3043 164.344 92.4263 162.967 92.4263ZM159.833 85.5671C159.156 85.5671 158.605 86.1175 158.605 86.795V89.9282C158.605 90.6057 159.156 91.1561 159.833 91.1561H162.967C163.645 91.1561 164.195 90.6057 164.195 89.9282V86.795C164.195 86.1175 163.645 85.5671 162.967 85.5671H159.833Z" fill="white"/>
<path d="M177.219 92.4263H174.085C172.708 92.4263 171.586 91.3043 171.586 89.9282V86.795C171.586 85.4189 172.708 84.2969 174.085 84.2969H177.219C178.595 84.2969 179.717 85.4189 179.717 86.795V89.9282C179.717 91.3043 178.595 92.4263 177.219 92.4263ZM174.085 85.5671C173.407 85.5671 172.856 86.1175 172.856 86.795V89.9282C172.856 90.6057 173.407 91.1561 174.085 91.1561H177.219C177.917 91.1561 178.447 90.6268 178.447 89.9282V86.795C178.447 86.1175 177.896 85.5671 177.219 85.5671H174.085Z" fill="white"/>
<path d="M281.699 284.293H204.112L219.337 236.639H266.453L281.699 284.293Z" fill="white"/>
<path d="M282.567 284.929H203.243L218.871 236.004H266.918L282.567 284.929ZM204.98 283.659H280.83L265.986 237.274H219.802L204.98 283.659Z" fill="#3FB1B5"/>
<path d="M210.21 265.219L219.337 236.639H266.452L210.21 265.219Z" fill="#3FB1B5"/>
<path d="M328.052 123.78H290.338C286.463 123.78 283.308 120.626 283.308 116.751V92.4055C283.308 88.5313 286.463 85.377 290.338 85.377H328.052C331.927 85.377 335.082 88.5313 335.082 92.4055V116.751C335.082 120.626 331.927 123.78 328.052 123.78ZM290.338 86.6472C287.162 86.6472 284.579 89.23 284.579 92.4055V116.751C284.579 119.927 287.162 122.51 290.338 122.51H328.052C331.228 122.51 333.812 119.927 333.812 116.751V92.4055C333.812 89.23 331.228 86.6472 328.052 86.6472H290.338Z" fill="white"/>
<path d="M323.499 95.3269H294.722C294.362 95.3269 294.086 95.0517 294.086 94.6918C294.086 94.3319 294.362 94.0566 294.722 94.0566H323.499C323.859 94.0566 324.134 94.3319 324.134 94.6918C324.134 95.0517 323.859 95.3269 323.499 95.3269Z" fill="white"/>
<path d="M323.499 101.889H294.722C294.362 101.889 294.086 101.614 294.086 101.254C294.086 100.894 294.362 100.619 294.722 100.619H323.499C323.859 100.619 324.134 100.894 324.134 101.254C324.134 101.614 323.859 101.889 323.499 101.889Z" fill="white"/>
<path d="M323.499 108.454H294.722C294.362 108.454 294.086 108.179 294.086 107.819C294.086 107.459 294.362 107.184 294.722 107.184H323.499C323.859 107.184 324.134 107.459 324.134 107.819C324.134 108.179 323.859 108.454 323.499 108.454Z" fill="white"/>
<path d="M323.499 115.016H294.722C294.362 115.016 294.086 114.741 294.086 114.381C294.086 114.021 294.362 113.746 294.722 113.746H323.499C323.859 113.746 324.134 114.021 324.134 114.381C324.134 114.741 323.859 115.016 323.499 115.016Z" fill="white"/>
<path d="M338.47 223.641H188.569L179.781 236.237C169.849 250.464 148.864 250.675 138.658 236.64L85.126 163.03C87.3706 165.825 97.6407 162.712 107.424 156.277C117.355 149.735 123.771 141.5 121.76 138.451L158.88 185.746L170.252 165.676C173.365 160.363 178.531 156.552 184.545 155.155L223.233 146.962H256.584L293.345 155.07C299.74 156.531 305.161 160.701 308.232 166.481L338.47 223.641Z" fill="white"/>
<path d="M159.071 247.669C150.707 247.669 143.083 243.795 138.149 236.999L84.6177 163.39L85.6341 162.628C87.434 164.851 96.9842 162.395 107.085 155.747C111.786 152.656 115.873 149.079 118.583 145.649C121.04 142.558 122.035 139.997 121.23 138.79L122.268 138.049L158.796 184.603L169.701 165.359C172.899 159.897 178.256 155.959 184.397 154.541L223.169 146.326H256.648L256.711 146.348L293.472 154.456C300.037 155.959 305.627 160.235 308.782 166.184L339.508 224.276H188.886L180.289 236.597C175.44 243.541 167.795 247.585 159.304 247.669C159.24 247.669 159.156 247.669 159.071 247.669ZM87.074 164.618L139.187 236.258C143.93 242.779 151.257 246.484 159.325 246.399C167.393 246.314 174.656 242.482 179.272 235.877L188.251 223.006H337.433L307.681 166.777C304.695 161.146 299.422 157.102 293.218 155.684L256.521 147.597H223.296L184.672 155.768C178.87 157.123 173.809 160.849 170.802 165.994L158.965 186.889L122.67 140.653C122.374 142.241 121.336 144.231 119.557 146.453C116.762 149.968 112.569 153.651 107.763 156.806C101.05 161.209 92.982 164.681 88.1752 164.681C87.794 164.681 87.4128 164.66 87.074 164.618Z" fill="#3FB1B5"/>
<path d="M297.327 223.408C297.094 223.408 296.882 223.281 296.755 223.07L286.104 202.048C285.955 201.73 286.061 201.349 286.379 201.201C286.696 201.052 287.078 201.158 287.226 201.476L297.877 222.498C298.025 222.816 297.919 223.197 297.602 223.345C297.517 223.387 297.432 223.408 297.327 223.408Z" fill="#3FB1B5"/>
<path d="M187.722 225.376C187.616 225.376 187.531 225.355 187.425 225.312C187.108 225.164 186.981 224.762 187.15 224.466L197.695 203.655C197.844 203.338 198.246 203.211 198.542 203.38C198.86 203.528 198.987 203.93 198.818 204.227L188.272 225.037C188.166 225.249 187.955 225.376 187.722 225.376Z" fill="#3FB1B5"/>
<path d="M168.6 198.915C168.409 198.915 168.219 198.83 168.092 198.661L143.93 167.773C143.719 167.498 143.761 167.096 144.036 166.884C144.311 166.672 144.714 166.715 144.926 166.99L169.087 197.877C169.299 198.153 169.256 198.555 168.981 198.766C168.875 198.872 168.727 198.915 168.6 198.915Z" fill="#3FB1B5"/>
<path d="M252.879 168.852L243.583 157.526C243.35 157.251 243.392 156.849 243.668 156.637C243.943 156.404 244.345 156.447 244.557 156.722L253.048 167.032L272.466 150.561C272.742 150.328 273.144 150.371 273.356 150.625C273.589 150.9 273.546 151.302 273.292 151.514L252.879 168.852Z" fill="#3FB1B5"/>
<path d="M228.739 169.255L206.356 151.535C206.081 151.323 206.038 150.921 206.25 150.646C206.462 150.371 206.864 150.328 207.139 150.54L228.506 167.455L236.743 156.934C236.955 156.658 237.357 156.616 237.632 156.828C237.908 157.039 237.95 157.442 237.738 157.717L228.739 169.255Z" fill="#3FB1B5"/>
<path d="M95.3114 174.462C93.2997 174.462 92.2409 173.848 91.7116 173.17C91.4998 172.895 91.5422 172.493 91.8174 172.281C92.0927 172.069 92.495 172.112 92.7068 172.387C93.5962 173.509 96.4972 173.445 100.457 172.26C104.671 170.99 109.753 168.492 114.369 165.422C119.092 162.289 123.2 158.668 125.931 155.197C128.409 152.063 129.404 149.48 128.599 148.253C128.409 147.956 128.494 147.575 128.79 147.363C129.086 147.173 129.468 147.258 129.679 147.554C130.823 149.311 129.849 152.296 126.948 155.98C124.131 159.536 119.917 163.262 115.089 166.459C110.304 169.635 105.243 172.133 100.838 173.467C98.4454 174.186 96.6455 174.462 95.3114 174.462Z" fill="#3FB1B5"/>
<path d="M122.48 153.906C120.807 153.906 119.452 152.551 119.452 150.879C119.452 149.206 120.807 147.852 122.48 147.852C124.153 147.852 125.508 149.206 125.508 150.879C125.508 152.551 124.153 153.906 122.48 153.906ZM122.48 149.122C121.506 149.122 120.722 149.905 120.722 150.879C120.722 151.853 121.506 152.636 122.48 152.636C123.454 152.636 124.237 151.853 124.237 150.879C124.237 149.905 123.454 149.122 122.48 149.122Z" fill="#3FB1B5"/>
<path d="M240.639 168.936C238.966 168.936 237.611 167.581 237.611 165.908C237.611 164.236 238.966 162.881 240.639 162.881C242.312 162.881 243.667 164.236 243.667 165.908C243.667 167.581 242.312 168.936 240.639 168.936ZM240.639 164.151C239.665 164.151 238.881 164.934 238.881 165.908C238.881 166.882 239.665 167.665 240.639 167.665C241.613 167.665 242.396 166.882 242.396 165.908C242.396 164.934 241.613 164.151 240.639 164.151Z" fill="#3FB1B5"/>
<path d="M240.639 188.201C238.966 188.201 237.611 186.846 237.611 185.174C237.611 183.501 238.966 182.146 240.639 182.146C242.312 182.146 243.667 183.501 243.667 185.174C243.667 186.846 242.312 188.201 240.639 188.201ZM240.639 183.417C239.665 183.417 238.881 184.2 238.881 185.174C238.881 186.148 239.665 186.931 240.639 186.931C241.613 186.931 242.396 186.148 242.396 185.174C242.396 184.2 241.613 183.417 240.639 183.417Z" fill="#3FB1B5"/>
<path d="M179.019 237.253L188.569 223.641V237.253H179.019Z" fill="#3FB1B5"/>
<path d="M107.191 155.641C97.4075 162.077 87.1373 165.189 84.8927 162.395C84.8504 162.352 84.8292 162.31 84.7868 162.247C84.321 161.548 84.3633 160.595 84.7868 159.431C86.2479 155.599 92.283 149.671 99.9485 144.633C106.047 140.61 112.061 137.816 116.233 136.948C118.647 136.461 120.446 136.609 121.315 137.541L121.526 137.795C123.517 140.843 117.122 149.1 107.191 155.641Z" fill="#FE5244"/>
<path d="M107.191 155.641C101.622 159.303 95.883 161.907 91.5632 162.924L72.2299 135.656C69.5406 131.845 70.43 126.574 74.2628 123.885L91.6691 111.649L81.8013 94.8607C80.3613 92.4261 81.1872 89.2717 83.6435 87.8532C84.4482 87.3875 85.3164 87.1758 86.1846 87.1758C87.8575 87.1758 89.5092 88.0014 90.4832 89.5257L121.336 137.498L121.548 137.837C123.517 140.843 117.122 149.099 107.191 155.641Z" fill="#E57281"/>
<path d="M97.1322 135.974C96.8569 135.974 96.5816 135.953 96.3063 135.889C95.2476 135.678 94.337 135.042 93.7653 134.153L83.5798 118.911C83.3893 118.614 83.4739 118.233 83.7492 118.021C84.0457 117.831 84.4269 117.916 84.6386 118.191L94.824 133.433C95.2264 134.047 95.8405 134.471 96.5604 134.619C97.2804 134.767 98.0216 134.619 98.6356 134.217L101.028 132.65C102.299 131.825 102.659 130.131 101.854 128.861L91.076 112.157C90.8854 111.861 90.9701 111.48 91.2665 111.289C91.563 111.099 91.9442 111.183 92.1348 111.48L102.913 128.183C104.099 130.046 103.548 132.523 101.706 133.709L99.3132 135.275C98.678 135.741 97.9157 135.974 97.1322 135.974Z" fill="#9A3B82"/>
<path d="M89.234 141.033C87.9211 141.033 86.6294 140.398 85.8459 139.233C85.6553 138.937 85.74 138.556 86.0365 138.344C86.3329 138.154 86.7141 138.238 86.9258 138.535C87.7517 139.784 89.4457 140.144 90.7163 139.339L92.8974 137.963C93.5115 137.561 93.9561 136.947 94.1044 136.206C94.2526 135.465 94.1256 134.724 93.7232 134.11C93.5326 133.814 93.6173 133.433 93.9138 133.221C94.2102 133.03 94.5914 133.115 94.8032 133.411C95.3961 134.322 95.6078 135.401 95.3749 136.481C95.142 137.54 94.5067 138.45 93.5961 139.043L91.4151 140.419C90.7375 140.821 89.9751 141.033 89.234 141.033Z" fill="#9A3B82"/>
<path d="M81.4839 145.776C80.2133 145.776 78.964 145.183 78.1805 144.061L72.3996 135.91C72.1878 135.614 72.2725 135.233 72.5478 135.021C72.8231 134.81 73.2254 134.894 73.4372 135.169L79.2181 143.32C80.0863 144.527 81.7168 144.844 82.945 144.061L82.9873 144.04L84.999 142.918C85.6343 142.516 86.0578 141.902 86.2272 141.182C86.3966 140.441 86.2484 139.7 85.846 139.065L75.8723 124.246C75.6818 123.949 75.7453 123.568 76.0418 123.356C76.3382 123.166 76.7194 123.229 76.9311 123.526L86.9048 138.345C87.5189 139.276 87.7095 140.377 87.4766 141.436C87.2436 142.494 86.6084 143.405 85.6766 143.976L85.6554 143.997L83.6438 145.12C82.945 145.585 82.2038 145.776 81.4839 145.776Z" fill="#9A3B82"/>
<path d="M114.136 126.321L109.075 118.467C107.402 115.863 103.908 115.143 101.346 116.879L88.7891 125.389C88.7891 125.389 92.4313 131.931 101.283 126.744L104.247 131.465C98.191 135.297 96.4546 143.363 100.393 149.354L114.136 126.321Z" fill="#E57281"/>
<path d="M100.393 149.988C100.181 149.988 99.9908 149.882 99.8637 149.692C97.8732 146.643 97.1745 143.002 97.9579 139.445C98.6779 136.1 100.605 133.221 103.379 131.273L101.071 127.59C98.0215 129.262 95.2475 129.749 92.7911 129.093C89.6783 128.246 88.2807 125.79 88.2172 125.705L87.9419 125.197L100.308 116.56C101.706 115.628 103.358 115.29 104.988 115.628C106.619 115.967 108.016 116.92 108.927 118.338L113.988 126.192C114.178 126.489 114.094 126.87 113.797 127.06C113.501 127.251 113.12 127.166 112.929 126.87L107.868 119.016C107.148 117.894 106.047 117.131 104.734 116.877C103.442 116.602 102.108 116.877 101.028 117.618L89.6571 125.557C90.1653 126.214 91.3088 127.399 93.1299 127.886C95.3745 128.5 98.0003 127.928 100.944 126.214L101.473 125.896L105.094 131.676L104.565 132.014C101.791 133.771 99.8637 136.524 99.1649 139.741C98.4662 142.959 99.0802 146.262 100.901 149.014C101.092 149.31 101.007 149.692 100.711 149.903C100.626 149.946 100.52 149.988 100.393 149.988Z" fill="#9A3B82"/>
<path d="M107.191 155.642C101.622 159.304 95.883 161.908 91.5632 162.924L86.7563 156.15C89.4456 152.636 94.2525 148.401 99.9487 144.654C106.047 140.632 112.061 137.837 116.233 136.969C118.647 136.482 120.447 136.631 121.315 137.562L121.527 137.816C121.548 137.859 121.569 137.88 121.59 137.922C121.611 137.943 121.611 137.964 121.632 138.007C121.654 138.049 121.675 138.07 121.696 138.113C123.136 141.352 116.804 149.291 107.191 155.642Z" fill="#9A3B82"/>
<path d="M256.563 128.332V146.941C256.563 152.339 249.067 156.7 239.856 156.7C230.623 156.7 223.148 152.339 223.148 146.941V128.332H256.563Z" fill="#E57281"/>
<path d="M228.039 153.842C225.011 152.085 223.126 149.629 223.126 146.941V128.332H256.563V133.498C256.563 138.854 253.302 143.659 248.347 145.671L228.039 153.842Z" fill="#9A3B82"/>
<path d="M265.88 127.232V127.549C265.88 130.767 263.275 133.371 260.057 133.371H256.224C254.932 138.579 250.231 142.453 244.598 142.453H235.112C229.5 142.453 224.778 138.6 223.508 133.371H219.675C216.456 133.371 213.852 130.767 213.852 127.549V127.232C213.852 124.014 216.456 121.41 219.675 121.41H223.148V116.816C223.148 111.904 226.769 107.84 231.491 107.162C232.528 108.898 235.662 113.047 242.057 112.815C245.064 112.709 247.86 112.137 250.168 111.46C252.942 110.655 255.716 112.349 256.414 114.995C256.52 115.588 256.584 116.181 256.584 116.795V121.389H260.057C263.254 121.389 265.88 124.014 265.88 127.232Z" fill="#E57281"/>
<path d="M259.231 121.388H256.562V116.286C256.562 115.841 256.499 115.396 256.393 114.994C255.694 112.348 252.92 110.654 250.146 111.459C247.838 112.136 245.064 112.708 242.036 112.814C235.641 113.047 232.507 108.897 231.469 107.161C226.747 107.839 223.126 111.903 223.126 116.815V121.409H219.802C219.802 121.409 215.99 107.627 218.849 103.732C221.665 99.8997 225.053 101.572 225.053 101.572C225.053 101.572 223.02 90.0978 234.37 90.3095C245.699 90.5212 260.438 103.668 261.518 106.081C263.212 109.786 259.231 121.388 259.231 121.388Z" fill="#9A3B82"/>
<path d="M257.855 128.84C257.558 128.84 257.325 128.607 257.325 128.31C257.325 125.77 259.4 123.695 261.941 123.695C262.238 123.695 262.471 123.928 262.471 124.225C262.471 124.521 262.238 124.754 261.941 124.754C259.972 124.754 258.384 126.342 258.384 128.31C258.384 128.607 258.151 128.84 257.855 128.84Z" fill="#9A3B82"/>
<path d="M221.898 128.84C221.602 128.84 221.369 128.607 221.369 128.31C221.369 126.342 219.78 124.754 217.811 124.754C217.515 124.754 217.282 124.521 217.282 124.225C217.282 123.928 217.515 123.695 217.811 123.695C220.352 123.695 222.427 125.77 222.427 128.31C222.427 128.607 222.194 128.84 221.898 128.84Z" fill="#9A3B82"/>
<path d="M251.226 117.345C251.121 117.345 251.015 117.302 250.909 117.239C250.803 117.154 248.071 115.228 244.577 116.689C244.302 116.794 244.006 116.667 243.878 116.392C243.773 116.117 243.9 115.821 244.175 115.694C248.241 114.021 251.396 116.265 251.523 116.371C251.756 116.54 251.819 116.879 251.629 117.112C251.544 117.26 251.396 117.345 251.226 117.345Z" fill="#9A3B82"/>
<path d="M228.272 117.345C228.103 117.345 227.955 117.26 227.849 117.133C227.679 116.901 227.722 116.562 227.955 116.392C228.082 116.287 231.258 114.043 235.303 115.715C235.578 115.821 235.705 116.138 235.599 116.414C235.493 116.689 235.175 116.816 234.9 116.71C231.385 115.249 228.611 117.239 228.569 117.26C228.484 117.303 228.378 117.345 228.272 117.345Z" fill="#9A3B82"/>
<path d="M241.189 135.17C240.363 135.17 239.41 135.001 238.33 134.598C238.055 134.493 237.907 134.196 238.013 133.921C238.119 133.646 238.415 133.498 238.69 133.603C243.137 135.255 244.598 132.333 244.662 132.206C244.789 131.952 245.107 131.825 245.361 131.952C245.615 132.079 245.742 132.397 245.615 132.651C245.594 132.693 244.387 135.17 241.189 135.17Z" fill="#9A3B82"/>
<path d="M239.686 131.19C239.199 131.19 238.67 131.19 238.225 131.148C237.928 131.127 237.717 130.873 237.738 130.576C237.759 130.28 238.013 130.068 238.31 130.089C239.559 130.174 241.486 130.089 241.507 130.089C241.804 130.068 242.036 130.301 242.058 130.597C242.079 130.894 241.846 131.127 241.549 131.148C241.507 131.148 240.639 131.19 239.686 131.19Z" fill="#9A3B82"/>
<path d="M247.817 125.645C248.402 125.645 248.876 124.848 248.876 123.866C248.876 122.884 248.402 122.088 247.817 122.088C247.232 122.088 246.758 122.884 246.758 123.866C246.758 124.848 247.232 125.645 247.817 125.645Z" fill="#9A3B82"/>
<path d="M232.634 125.645C233.219 125.645 233.693 124.848 233.693 123.866C233.693 122.884 233.219 122.088 232.634 122.088C232.049 122.088 231.575 122.884 231.575 123.866C231.575 124.848 232.049 125.645 232.634 125.645Z" fill="#9A3B82"/>
<path d="M235.154 130.385H228.484C226.917 130.385 225.625 129.093 225.625 127.527V120.858C225.625 119.291 226.917 118 228.484 118H235.154C236.721 118 238.013 119.291 238.013 120.858V127.527C238.034 128.268 237.737 128.987 237.208 129.517C236.657 130.088 235.937 130.385 235.154 130.385ZM228.484 119.059C227.488 119.059 226.684 119.863 226.684 120.858V127.527C226.684 128.522 227.488 129.326 228.484 129.326H235.154C235.641 129.326 236.107 129.136 236.446 128.776C236.785 128.437 236.954 127.992 236.954 127.527V120.858C236.954 119.863 236.149 119.059 235.154 119.059H228.484Z" fill="white"/>
<path d="M251.48 130.385H244.81C243.243 130.385 241.951 129.093 241.951 127.527V120.858C241.951 119.291 243.243 118 244.81 118H251.48C253.047 118 254.339 119.291 254.339 120.858V127.527C254.339 129.093 253.047 130.385 251.48 130.385ZM244.81 119.059C243.815 119.059 243.01 119.863 243.01 120.858V127.527C243.01 128.522 243.815 129.326 244.81 129.326H251.48C252.475 129.326 253.28 128.522 253.28 127.527V120.858C253.28 119.863 252.475 119.059 251.48 119.059H244.81Z" fill="white"/>
<path d="M242.481 122.404H237.504V123.463H242.481V122.404Z" fill="white"/>
<path d="M253.239 216.063H230.094C227.637 216.063 225.647 214.073 225.647 211.617V199.317C225.647 196.861 227.637 194.871 230.094 194.871H253.239C255.695 194.871 257.686 196.861 257.686 199.317V211.617C257.686 214.073 255.695 216.063 253.239 216.063ZM230.094 196.141C228.336 196.141 226.918 197.56 226.918 199.317V211.617C226.918 213.374 228.336 214.792 230.094 214.792H253.239C254.996 214.792 256.415 213.374 256.415 211.617V199.317C256.415 197.56 254.996 196.141 253.239 196.141H230.094Z" fill="#66B0F0"/>
<path d="M242.248 210.475H234.413C233.164 210.475 232.147 209.458 232.147 208.209V202.726C232.147 201.477 233.164 200.461 234.413 200.461H242.248C243.498 200.461 244.514 201.477 244.514 202.726V208.209C244.514 209.458 243.498 210.475 242.248 210.475Z" fill="#66B0F0"/>
<path d="M249.872 210.325L247.458 208.716C246.801 208.272 246.399 207.51 246.399 206.684V204.271C246.399 203.445 246.801 202.683 247.458 202.238L249.872 200.629C250.443 200.248 251.185 200.672 251.185 201.391V209.584C251.206 210.283 250.443 210.706 249.872 210.325Z" fill="#66B0F0"/>
<path d="M562.783 285.354H0.635267C0.275282 285.354 0 285.079 0 284.719C0 284.359 0.275282 284.084 0.635267 284.084H562.783C563.143 284.084 563.418 284.359 563.418 284.719C563.418 285.079 563.143 285.354 562.783 285.354Z" fill="#3FB1B5"/>
<path d="M181.623 288.424V549.794H166.864V500.043C166.864 495.407 163.094 491.639 158.457 491.639H52.8121C48.1746 491.639 44.4054 495.407 44.4054 500.043V549.794H29.646V288.424H181.623Z" fill="white"/>
<path d="M182.258 550.429H166.228V500.044C166.228 495.767 162.734 492.274 158.457 492.274H52.8121C48.5346 492.274 45.0407 495.767 45.0407 500.044V550.429H29.0107V287.789H182.258V550.429V550.429ZM167.499 549.159H180.988V289.059H30.2813V549.159H43.7701V500.044C43.7701 495.069 47.8358 491.004 52.8121 491.004H158.457C163.433 491.004 167.499 495.069 167.499 500.044V549.159Z" fill="#3FB1B5"/>
<path d="M182.068 288.424V357.778L29.646 483.255L29.6672 288.424H182.068Z" fill="#D0F0E4"/>
<path d="M158.901 364.319H52.3883C47.645 364.319 43.791 360.466 43.791 355.724V308.324C43.791 303.582 47.645 299.729 52.3883 299.729H158.901C163.645 299.729 167.499 303.582 167.499 308.324V355.724C167.499 360.466 163.645 364.319 158.901 364.319ZM52.3883 300.999C48.3438 300.999 45.0615 304.28 45.0615 308.324V355.724C45.0615 359.768 48.3438 363.049 52.3883 363.049H158.901C162.946 363.049 166.228 359.768 166.228 355.724V308.324C166.228 304.28 162.946 300.999 158.901 300.999H52.3883Z" fill="#3FB1B5"/>
<path d="M132.728 399.59H80.2978L78.1167 384.58H130.569L132.728 399.59Z" fill="#FFCF2D"/>
<path d="M160.702 375.922C154.158 375.922 148.864 381.214 148.864 387.756V399.59H104.248V387.756C104.248 381.214 109.541 375.922 116.085 375.922H160.702Z" fill="white"/>
<path d="M149.5 400.226H103.612V387.756C103.612 380.876 109.203 375.287 116.085 375.287H160.702V376.557C154.518 376.557 149.5 381.575 149.5 387.756V400.226ZM104.883 398.956H148.229V387.756C148.229 382.845 151.088 378.59 155.217 376.557H116.085C109.901 376.557 104.883 381.575 104.883 387.756V398.956Z" fill="#3FB1B5"/>
<path d="M171.819 384.581H127.202C125.826 379.584 121.231 375.922 115.789 375.922H160.405C165.848 375.922 170.422 379.584 171.819 384.581Z" fill="white"/>
<path d="M172.666 385.216H126.737L126.61 384.75C125.276 379.923 120.829 376.557 115.81 376.557V375.287H160.427C165.996 375.287 170.951 379.034 172.455 384.412L172.666 385.216ZM127.668 383.946H170.951C169.363 379.564 165.128 376.557 160.406 376.557H121.273C124.259 378.018 126.631 380.664 127.668 383.946Z" fill="#3FB1B5"/>
<path d="M158.901 463.546H52.3883C47.645 463.546 43.791 459.693 43.791 454.951V407.55C43.791 402.808 47.645 398.955 52.3883 398.955H158.901C163.645 398.955 167.499 402.808 167.499 407.55V454.951C167.499 459.693 163.645 463.546 158.901 463.546ZM52.3883 400.225C48.3438 400.225 45.0615 403.507 45.0615 407.55V454.951C45.0615 458.994 48.3438 462.276 52.3883 462.276H158.901C162.946 462.276 166.228 458.994 166.228 454.951V407.55C166.228 403.507 162.946 400.225 158.901 400.225H52.3883Z" fill="#3FB1B5"/>
<path d="M127.477 331.718C127.117 331.718 126.842 331.443 126.842 331.083C126.842 327.653 124.068 324.88 120.637 324.88H90.6737C87.2433 324.88 84.4693 327.653 84.4693 331.083C84.4693 331.443 84.194 331.718 83.834 331.718C83.474 331.718 83.1987 331.443 83.1987 331.083C83.1987 326.954 86.5445 323.609 90.6737 323.609H120.637C124.766 323.609 128.112 326.954 128.112 331.083C128.112 331.443 127.837 331.718 127.477 331.718Z" fill="#3FB1B5"/>
<path d="M127.477 430.942C127.117 430.942 126.842 430.667 126.842 430.307C126.842 426.878 124.068 424.104 120.637 424.104H90.6737C87.2433 424.104 84.4693 426.878 84.4693 430.307C84.4693 430.667 84.194 430.942 83.834 430.942C83.474 430.942 83.1987 430.667 83.1987 430.307C83.1987 426.179 86.5445 422.834 90.6737 422.834H120.637C124.766 422.834 128.112 426.179 128.112 430.307C128.112 430.667 127.837 430.942 127.477 430.942Z" fill="#3FB1B5"/>
<path d="M540.4 288.424H524.667V550.365H540.4V288.424Z" fill="white"/>
<path d="M541.035 551.001H524.031V287.789H541.035V551.001ZM525.302 549.731H539.765V289.059H525.302V549.731Z" fill="#3FB1B5"/>
<path d="M601.365 551.001H273.017C272.657 551.001 272.381 550.725 272.381 550.366C272.381 550.006 272.657 549.73 273.017 549.73H601.365C601.725 549.73 602 550.006 602 550.366C602 550.725 601.725 551.001 601.365 551.001Z" fill="#3FB1B5"/>
<path d="M74.3267 248.791H64.8189C64.8189 248.791 51.2454 192.245 39.3235 190.403C27.4017 188.562 26.7876 210.325 26.7876 210.325C26.7876 210.325 26.9994 177.235 56.7934 181.766C86.6086 186.296 74.3267 248.791 74.3267 248.791Z" fill="white"/>
<path d="M74.8564 249.427H64.3322L64.2051 248.94C64.1628 248.791 60.7535 234.65 55.9467 220.487C47.9846 197.051 42.4578 191.525 39.2391 191.039C37.0369 190.7 35.0887 191.208 33.4794 192.563C27.8679 197.22 27.4444 210.219 27.4444 210.346L26.1738 210.325C26.1738 210.155 26.2162 206.281 27.4655 201.327C28.6302 196.733 31.0866 190.319 36.2322 185.915C41.4626 181.448 48.4082 179.839 56.9207 181.152C62.4264 181.978 66.8944 184.814 70.219 189.535C75.5552 197.136 77.9904 209.436 77.4187 226.139C76.9952 238.524 75.0047 248.813 74.9835 248.918L74.8564 249.427ZM65.3274 248.156H73.8188C74.2212 245.933 75.7882 236.788 76.1481 226.076C76.5293 214.792 75.6188 199.443 69.1814 190.276C66.0686 185.831 61.8758 183.184 56.7301 182.422C48.6199 181.194 41.9919 182.697 37.058 186.91C35.5758 188.181 34.3052 189.641 33.2464 191.187C35.0464 189.917 37.1216 189.472 39.4509 189.832C44.6389 190.636 50.6104 200.84 57.1748 220.148C61.4735 232.829 64.671 245.531 65.3274 248.156Z" fill="#3FB1B5"/>
<path d="M70.1546 248.581C69.8158 248.581 69.5193 248.305 69.5193 247.945C68.8205 205.795 59.8844 190.912 52.5153 185.874C46.925 182.042 42.0334 183.778 41.9911 183.799C41.6523 183.926 41.2923 183.757 41.1652 183.418C41.0382 183.079 41.2076 182.719 41.5464 182.592C41.7793 182.508 47.0944 180.624 53.2353 184.815C57.9786 188.076 61.8538 194.046 64.7336 202.598C68.4394 213.607 70.4722 228.85 70.7898 247.924C70.7898 248.284 70.5146 248.581 70.1546 248.581Z" fill="#3FB1B5"/>
<path d="M100.224 247.945H55.5649V284.295H100.224V247.945Z" fill="#FE5244"/>
<path d="M109.626 266.129C106.788 267.356 103.4 267.208 100.245 265.832C97.9157 264.816 95.7135 263.144 93.9348 260.857C91.4784 257.682 89.8267 253.342 89.8267 247.943C89.8267 234.86 79.4083 226.646 75.1309 243.963C74.8344 245.17 74.5591 246.482 74.3262 247.943V247.901V247.816C74.3262 247.774 74.3262 247.71 74.3474 247.647V247.562C74.4321 246.482 74.7497 243.286 75.7238 239.433C76.4437 236.575 77.5237 233.399 79.133 230.456C79.9377 228.996 80.8694 227.598 81.9706 226.349C84.8081 223.089 88.7044 220.803 94.0194 220.803C103.803 220.803 110.96 232.319 113.692 243.794C116.084 253.765 115.11 263.736 109.626 266.129Z" fill="white"/>
<path d="M105.454 267.59C103.654 267.59 101.77 267.187 99.9911 266.404C97.4712 265.303 95.2055 263.525 93.4267 261.239C90.6527 257.661 89.1916 253.046 89.1916 247.944C89.1916 241.973 86.5658 235.241 82.6484 234.776C79.8108 234.437 77.3121 237.845 75.7451 244.112C75.4275 245.424 75.1734 246.695 74.9405 248.049L73.6699 247.944V247.817C73.6699 247.774 73.6699 247.668 73.6911 247.562V247.499C73.7758 246.313 74.1146 243.138 75.0887 239.264C75.9569 235.834 77.1215 232.764 78.5615 230.139C79.472 228.509 80.4249 227.112 81.4837 225.926C84.8083 222.094 89.0222 220.168 94.0196 220.168C104.184 220.168 111.532 231.96 114.306 243.646C115.534 248.79 115.873 253.85 115.238 257.894C114.539 262.445 112.675 265.473 109.88 266.701C108.525 267.293 107.021 267.59 105.454 267.59ZM82.2672 233.484C82.4578 233.484 82.6272 233.505 82.7966 233.527C87.0317 234.035 90.4621 240.513 90.4621 247.965C90.4621 252.792 91.8385 257.132 94.4431 260.498C96.0948 262.615 98.1912 264.266 100.499 265.282C103.527 266.595 106.767 266.701 109.372 265.579C114.115 263.504 115.619 254.633 113.078 243.985C111.659 237.993 109.139 232.468 106.005 228.424C102.469 223.873 98.3394 221.481 94.0196 221.481C89.4245 221.481 85.5282 223.28 82.4578 226.815C81.4625 227.959 80.552 229.25 79.705 230.817C78.6462 232.764 77.7356 234.945 76.9945 237.358C77.3545 236.766 77.7145 236.236 78.0956 235.771C79.5991 233.929 81.1237 233.484 82.2672 233.484Z" fill="#3FB1B5"/>
<path d="M107.36 267.167C107.043 267.167 106.767 266.934 106.725 266.596C103.633 237.571 96.5819 228.595 91.2245 226.181C86.4388 224.022 82.3943 226.838 82.3519 226.859C82.0766 227.071 81.6743 226.986 81.4625 226.711C81.2508 226.435 81.3355 226.033 81.6108 225.822C81.8013 225.695 86.2906 222.561 91.7327 225.017C95.3325 226.647 98.4665 230.331 101.029 236.005C104.247 243.097 106.577 253.343 107.974 266.448C108.017 266.786 107.763 267.104 107.403 267.146C107.403 267.167 107.381 267.167 107.36 267.167Z" fill="#3FB1B5"/>
<path d="M26.1518 210.325C26.1518 213.819 25.7495 227.177 38.4972 227.791C51.2449 228.405 52.5154 209.161 52.5154 209.161C52.5154 209.161 46.2474 192.14 39.323 190.404C27.6129 187.461 26.1518 210.325 26.1518 210.325Z" fill="#3FB1B5"/>
<path d="M89.8267 247.944H74.3262C77.9048 225.525 89.8267 233.951 89.8267 247.944Z" fill="#3FB1B5"/>
<path opacity="0.4" d="M353.06 83.2828V223.029C353.06 230.544 346.962 236.62 339.466 236.62H179.484C169.447 250.444 148.758 250.508 138.637 236.62L138.615 236.599C134.592 236.324 131.035 234.27 128.748 231.243L132.432 228.067L226.452 146.942L315.982 69.6914H339.466C346.962 69.6914 353.06 75.7885 353.06 83.2828Z" fill="white"/>
<path opacity="0.4" d="M109.626 266.767C106.81 268.037 103.4 267.846 100.245 266.47V284.296H67.2749L93.9561 261.284L100.266 255.843L105.073 251.693L114.369 243.797C117.08 255.356 115.576 264.036 109.626 266.767Z" fill="white"/>
<path d="M390.392 360.824V478.659H363.16L345.817 430.242L320.979 360.824H390.392Z" fill="#A0505A"/>
<path d="M320.979 360.824H390.392V398.656L329.237 383.879L320.979 360.824Z" fill="#73325A"/>
<path d="M391.027 479.293H362.716L344.653 428.865L346.135 429.67C346.177 429.691 349.693 431.575 356.85 432.507C363.457 433.375 374.637 433.565 390.244 429.606L391.027 429.416V479.293V479.293ZM363.605 478.023H389.757V431.046C374.299 434.878 363.203 434.645 356.575 433.777C351.768 433.142 348.591 432.104 346.919 431.427L363.605 478.023Z" fill="white"/>
<path d="M359.984 442.245C357.93 442.245 356.257 440.572 356.257 438.519C356.257 436.465 357.93 434.793 359.984 434.793C362.038 434.793 363.711 436.465 363.711 438.519C363.711 440.572 362.038 442.245 359.984 442.245ZM359.984 436.063C358.628 436.063 357.527 437.164 357.527 438.519C357.527 439.874 358.628 440.975 359.984 440.975C361.339 440.975 362.44 439.874 362.44 438.519C362.44 437.164 361.339 436.063 359.984 436.063Z" fill="white"/>
<path d="M374.723 452.216C372.669 452.216 370.996 450.543 370.996 448.49C370.996 446.436 372.669 444.764 374.723 444.764C376.777 444.764 378.449 446.436 378.449 448.49C378.449 450.543 376.777 452.216 374.723 452.216ZM374.723 446.034C373.367 446.034 372.266 447.135 372.266 448.49C372.266 449.845 373.367 450.945 374.723 450.945C376.078 450.945 377.179 449.845 377.179 448.49C377.179 447.135 376.078 446.034 374.723 446.034Z" fill="white"/>
<path d="M385.691 441.143C383.637 441.143 381.964 439.471 381.964 437.417C381.964 435.364 383.637 433.691 385.691 433.691C387.745 433.691 389.418 435.364 389.418 437.417C389.418 439.471 387.745 441.143 385.691 441.143ZM385.691 434.962C384.336 434.962 383.234 436.063 383.234 437.417C383.234 438.772 384.336 439.873 385.691 439.873C387.046 439.873 388.147 438.772 388.147 437.417C388.147 436.063 387.046 434.962 385.691 434.962Z" fill="white"/>
<path d="M381.35 463.817C379.296 463.817 377.623 462.145 377.623 460.091C377.623 458.038 379.296 456.365 381.35 456.365C383.404 456.365 385.077 458.038 385.077 460.091C385.077 462.145 383.404 463.817 381.35 463.817ZM381.35 457.635C379.995 457.635 378.894 458.736 378.894 460.091C378.894 461.446 379.995 462.547 381.35 462.547C382.705 462.547 383.806 461.446 383.806 460.091C383.806 458.736 382.705 457.635 381.35 457.635Z" fill="white"/>
<path d="M363.076 458.186C361.022 458.186 359.349 456.514 359.349 454.46C359.349 452.407 361.022 450.734 363.076 450.734C365.13 450.734 366.803 452.407 366.803 454.46C366.803 456.514 365.13 458.186 363.076 458.186ZM363.076 452.005C361.721 452.005 360.62 453.105 360.62 454.46C360.62 455.815 361.721 456.916 363.076 456.916C364.431 456.916 365.532 455.815 365.532 454.46C365.532 453.105 364.431 452.005 363.076 452.005Z" fill="white"/>
<path d="M368.116 475.122C366.062 475.122 364.389 473.449 364.389 471.396C364.389 469.342 366.062 467.67 368.116 467.67C370.17 467.67 371.842 469.342 371.842 471.396C371.842 473.449 370.17 475.122 368.116 475.122ZM368.116 468.94C366.76 468.94 365.659 470.041 365.659 471.396C365.659 472.751 366.76 473.852 368.116 473.852C369.471 473.852 370.572 472.751 370.572 471.396C370.572 470.041 369.471 468.94 368.116 468.94Z" fill="white"/>
<path d="M403.267 500.634L384.59 539.397C381.943 545.642 375.823 549.707 369.026 549.707H345.203C339.105 549.707 335.399 543.525 337.728 537.894L361.678 480.141C363.012 476.627 365.363 473.705 368.306 471.651C371.271 469.598 374.828 468.434 378.576 468.434C383.785 468.434 388.952 471.969 392.383 475.886L400.683 484.841C404.516 489.202 405.511 495.32 403.267 500.634Z" fill="#66B0F0"/>
<path d="M403.267 500.634L384.59 539.397C381.943 545.643 375.823 549.707 369.026 549.707H343.7C341.35 549.707 340.015 548.247 339.232 546.235H344.865C351.662 546.235 357.782 542.171 360.429 535.925L381.964 491.023C383.976 486.831 388.232 484.143 392.891 484.143C398.968 484.143 403.584 488.588 404.431 494.22C404.516 496.379 404.135 498.56 403.267 500.634Z" fill="white"/>
<path d="M369.026 550.343H343.7C341.349 550.343 339.634 549.03 338.639 546.469C338.554 546.278 338.596 546.045 338.702 545.876C338.829 545.706 339.02 545.601 339.232 545.601H344.864C351.408 545.601 357.295 541.705 359.836 535.672C359.836 535.672 359.836 535.651 359.857 535.651L381.392 490.748C383.51 486.345 388.02 483.508 392.891 483.508C399.01 483.508 404.135 487.975 405.067 494.135C405.067 494.157 405.067 494.178 405.067 494.199C405.151 496.485 404.749 498.751 403.86 500.889C403.86 500.889 403.86 500.91 403.838 500.91L385.162 539.652C382.409 546.151 376.077 550.343 369.026 550.343ZM340.227 546.871C341.032 548.374 342.154 549.073 343.7 549.073H369.026C375.569 549.073 381.456 545.177 383.997 539.144C383.997 539.144 383.997 539.122 384.018 539.122L402.695 500.381C403.5 498.433 403.881 496.379 403.796 494.284C402.949 488.779 398.375 484.778 392.891 484.778C388.507 484.778 384.442 487.34 382.536 491.299L361 536.18C358.247 542.679 351.916 546.871 344.864 546.871H340.227Z" fill="#66B0F0"/>
<path d="M398.968 482.977C396.723 481.749 394.013 480.86 391.641 480.86C387.089 480.86 382.875 483.506 380.905 487.613L358.607 534.104C355.77 540.815 349.206 545.155 341.9 545.155H337.792C337.58 544.752 337.432 544.329 337.284 543.884H341.9C348.697 543.884 354.796 539.841 357.443 533.596L357.464 533.574L379.783 487.063C381.964 482.511 386.623 479.59 391.663 479.59C393.272 479.59 395.199 480.119 396.851 480.691L398.968 482.977Z" fill="white"/>
<path d="M320.979 360.825L315.664 430.243L313.292 461.342C313.292 461.342 297.813 478.575 280.194 467.947L272.042 430.264L253.386 344.037C248.346 320.728 264.27 298.055 287.924 294.9L320.979 360.825Z" fill="#A0505A"/>
<path d="M292.116 472.88C288.326 472.88 284.154 471.927 279.877 469.344L279.644 469.196L271.216 429.354L272.232 429.671C292.285 435.683 315.282 429.713 315.515 429.65L316.383 429.417L313.927 462.464L313.779 462.633C313.609 462.803 309.755 467.058 303.636 470.064C300.565 471.546 296.584 472.88 292.116 472.88ZM280.766 468.392C287.796 472.541 295.292 472.71 303.043 468.921C308.294 466.338 311.936 462.697 312.677 461.914L314.964 431.068C313.037 431.513 308.04 432.593 301.581 433.185C294.149 433.884 283.244 434.053 272.868 431.174L280.766 468.392Z" fill="white"/>
<path d="M291.332 450.079C289.278 450.079 287.605 448.406 287.605 446.353C287.605 444.299 289.278 442.627 291.332 442.627C293.386 442.627 295.059 444.299 295.059 446.353C295.059 448.406 293.386 450.079 291.332 450.079ZM291.332 443.897C289.977 443.897 288.876 444.998 288.876 446.353C288.876 447.708 289.977 448.809 291.332 448.809C292.688 448.809 293.789 447.708 293.789 446.353C293.789 444.998 292.688 443.897 291.332 443.897Z" fill="white"/>
<path d="M310.983 445.337C308.929 445.337 307.256 443.664 307.256 441.611C307.256 439.557 308.929 437.885 310.983 437.885C313.037 437.885 314.71 439.557 314.71 441.611C314.71 443.664 313.037 445.337 310.983 445.337ZM310.983 439.155C309.628 439.155 308.527 440.256 308.527 441.611C308.527 442.966 309.628 444.067 310.983 444.067C312.339 444.067 313.44 442.966 313.44 441.611C313.44 440.256 312.339 439.155 310.983 439.155Z" fill="white"/>
<path d="M279.474 441.145C277.42 441.145 275.747 439.473 275.747 437.419C275.747 435.366 277.42 433.693 279.474 433.693C281.528 433.693 283.201 435.366 283.201 437.419C283.201 439.473 281.528 441.145 279.474 441.145ZM279.474 434.964C278.119 434.964 277.018 436.064 277.018 437.419C277.018 438.774 278.119 439.875 279.474 439.875C280.829 439.875 281.93 438.774 281.93 437.419C281.93 436.064 280.829 434.964 279.474 434.964Z" fill="white"/>
<path d="M288.241 466.909C286.187 466.909 284.514 465.236 284.514 463.183C284.514 461.129 286.187 459.457 288.241 459.457C290.295 459.457 291.968 461.129 291.968 463.183C291.968 465.236 290.295 466.909 288.241 466.909ZM288.241 460.727C286.886 460.727 285.785 461.828 285.785 463.183C285.785 464.538 286.886 465.639 288.241 465.639C289.596 465.639 290.697 464.538 290.697 463.183C290.697 461.828 289.596 460.727 288.241 460.727Z" fill="white"/>
<path d="M302.661 460.727C300.607 460.727 298.935 459.055 298.935 457.001C298.935 454.948 300.607 453.275 302.661 453.275C304.715 453.275 306.388 454.948 306.388 457.001C306.388 459.055 304.715 460.727 302.661 460.727ZM302.661 454.546C301.306 454.546 300.205 455.646 300.205 457.001C300.205 458.356 301.306 459.457 302.661 459.457C304.017 459.457 305.118 458.356 305.118 457.001C305.118 455.646 304.017 454.546 302.661 454.546Z" fill="white"/>
<path d="M333.705 468.751L313.292 550.363H306.855C306.558 550.363 306.283 550.342 305.986 550.321C301.116 549.876 297.008 545.769 295.97 540.921L280.173 467.904C297.791 478.553 313.292 461.32 313.292 461.32L333.705 468.751Z" fill="#66B0F0"/>
<path d="M334.743 510.626C339.041 487.931 340.227 470.592 332.816 469.195C325.404 467.798 312.212 482.85 307.913 505.545C303.615 528.24 305.859 548.309 313.271 549.706C320.682 551.125 330.444 533.342 334.743 510.626Z" fill="white"/>
<path d="M314.118 550.426C313.8 550.426 313.461 550.405 313.143 550.341C309.29 549.622 306.6 544.414 305.563 535.691C304.567 527.287 305.181 516.532 307.278 505.439C309.268 494.96 313.313 485.2 318.67 477.96C323.583 471.333 328.919 467.819 332.921 468.581C336.775 469.301 338.681 473.662 338.787 481.919C338.872 488.651 337.749 498.072 335.357 510.753C333.663 519.687 331.1 528.091 327.945 535.056C324.832 541.937 321.423 546.764 318.098 549.029C316.743 549.939 315.409 550.426 314.118 550.426ZM331.82 469.746C328.432 469.746 323.879 473.091 319.708 478.722C314.456 485.814 310.496 495.383 308.527 505.672C306.452 516.659 305.838 527.266 306.812 535.543C307.765 543.546 310.158 548.478 313.376 549.092C314.605 549.325 315.96 548.944 317.4 547.97C323.901 543.546 330.783 528.155 334.107 510.52C336.5 497.945 337.601 488.587 337.516 481.94C337.432 474.488 335.801 470.423 332.688 469.83C332.413 469.767 332.117 469.746 331.82 469.746Z" fill="#66B0F0"/>
<path d="M304.948 505.185C302.725 516.955 302.069 528.324 303.127 537.215C303.89 543.609 305.499 548.161 307.701 550.362H306.854C306.558 550.362 306.282 550.341 305.986 550.32C303.996 547.695 302.577 543.291 301.857 537.364C300.777 528.366 301.433 516.85 303.699 504.952C305.838 493.689 310.158 483.125 315.896 475.186C319.327 470.444 322.926 467.12 326.209 465.617L328.114 466.252C320.555 468.496 309.078 483.4 304.948 505.185Z" fill="white"/>
<path d="M287.924 294.88L384.527 284.93L481.088 312.007L480.262 324.836C478.949 345.075 461.5 360.826 441.214 360.826H321.001L287.924 294.88Z" fill="#FE5244"/>
<path d="M436.957 352.569H316.744C316.384 352.569 316.108 352.293 316.108 351.933C316.108 351.574 316.384 351.298 316.744 351.298H436.957C446.147 351.298 455.782 346.45 463.406 337.961C470.626 329.916 474.946 319.86 474.946 311.075C474.946 310.715 475.222 310.439 475.582 310.439C475.942 310.439 476.217 310.715 476.217 311.075C476.217 320.178 471.77 330.551 464.358 338.829C456.481 347.551 446.507 352.569 436.957 352.569Z" fill="white"/>
<path d="M427.492 341.983H311.874C311.514 341.983 311.238 341.708 311.238 341.348C311.238 340.988 311.514 340.713 311.874 340.713H427.492C435.518 340.713 443.818 336.944 450.828 330.085C457.413 323.649 462.029 315.35 463.491 307.306C463.554 306.967 463.893 306.734 464.232 306.798C464.571 306.861 464.803 307.2 464.74 307.539C461.754 323.819 445.724 341.983 427.492 341.983Z" fill="white"/>
<path d="M417.306 331.187H305.732C305.372 331.187 305.097 330.912 305.097 330.552C305.097 330.192 305.372 329.917 305.732 329.917H417.306C432.553 329.917 445.788 316.199 450.51 303.306C450.637 302.967 450.997 302.798 451.314 302.925C451.653 303.052 451.823 303.412 451.696 303.729C449.07 310.906 444.326 317.66 438.313 322.74C431.769 328.266 424.506 331.187 417.306 331.187Z" fill="white"/>
<path d="M411.801 319.542H300.227C299.867 319.542 299.592 319.267 299.592 318.907C299.592 318.547 299.867 318.272 300.227 318.272H411.801C422.304 318.272 433.315 311.434 440.557 300.447C440.748 300.15 441.15 300.065 441.447 300.256C441.743 300.447 441.828 300.849 441.637 301.145C434.141 312.493 422.728 319.542 411.801 319.542Z" fill="white"/>
<path d="M406.507 308.958H294.933C294.573 308.958 294.298 308.682 294.298 308.323C294.298 307.963 294.573 307.687 294.933 307.687H406.507C414.596 307.687 422.749 303.961 429.462 297.208C429.716 296.954 430.118 296.954 430.351 297.208C430.605 297.462 430.605 297.864 430.351 298.097C423.405 305.105 414.935 308.958 406.507 308.958Z" fill="white"/>
<path d="M400.79 298.161H289.216C288.856 298.161 288.581 297.886 288.581 297.526C288.581 297.166 288.856 296.891 289.216 296.891H400.79C405.554 296.891 410.34 295.536 415.041 292.889C415.337 292.72 415.74 292.826 415.909 293.122C416.079 293.419 415.973 293.821 415.676 293.99C410.785 296.764 405.766 298.161 400.79 298.161Z" fill="white"/>
<path d="M320.768 361.461C320.535 361.461 320.302 361.334 320.196 361.101L287.141 295.155C286.992 294.837 287.12 294.456 287.416 294.308C287.734 294.16 288.115 294.287 288.263 294.583L321.318 360.529C321.466 360.847 321.339 361.228 321.043 361.376C320.958 361.44 320.873 361.461 320.768 361.461Z" fill="white"/>
<path d="M486.381 223.643C477.276 226.225 468.318 225.463 467.365 222.69C466.476 220.044 470.499 215.513 478.652 212.507C479.054 212.359 479.478 212.211 479.901 212.062C482.358 211.237 484.814 210.707 487.122 210.432C493.962 209.564 499.531 210.792 500.23 212.867C501.183 215.64 496.016 220.912 486.381 223.643Z" fill="white"/>
<path d="M475.539 225.865C470.923 225.865 467.429 224.827 466.751 222.901C465.608 219.514 470.626 214.793 478.419 211.913C478.821 211.765 479.245 211.617 479.668 211.469H479.69C482.082 210.664 484.56 210.114 487.037 209.818C494.047 208.928 499.976 210.156 500.823 212.676C501.119 213.501 500.971 214.517 500.42 215.576C498.642 218.963 493.2 222.393 486.55 224.277C482.718 225.335 478.843 225.865 475.539 225.865ZM491.463 210.791C490.171 210.791 488.753 210.876 487.207 211.067C484.814 211.363 482.421 211.892 480.113 212.676C479.69 212.824 479.266 212.972 478.885 213.12C475.2 214.475 472.066 216.275 470.076 218.201C468.403 219.81 467.62 221.419 467.98 222.499C468.678 224.552 476.831 225.695 486.212 223.049C491.4 221.588 497.456 218.519 499.298 214.983C499.679 214.242 499.806 213.586 499.637 213.078C499.256 211.956 496.249 210.791 491.463 210.791Z" fill="#3FB1B5"/>
<path d="M480.621 285.375H477.127L467.958 223.494V223.452L467.725 221.907C468.17 219.091 472.574 215.111 480.346 212.528C484.221 211.237 488.075 210.665 491.357 210.602L494.703 219.768L495.02 220.636L505.608 249.661C511.961 267 499.107 285.375 480.621 285.375Z" fill="#A0505A"/>
<path d="M494.914 220.425C492.691 221.822 489.811 223.113 486.381 224.087C478.503 226.31 470.52 225.4 467.958 223.494V223.452L467.725 221.907C468.17 219.091 472.574 215.111 480.346 212.528C484.221 211.237 488.075 210.665 491.357 210.602L494.914 220.425Z" fill="#73325A"/>
<path d="M367.205 234.46L356.088 262.109C350.603 275.764 337.347 284.719 322.609 284.719H173.173V271.043C173.173 267.74 175.206 264.776 178.298 263.612L193.65 257.79C195.048 257.261 196.509 256.985 197.991 256.985H215.419L314.054 247.035L331.079 208.061L367.205 234.46Z" fill="#A0505A"/>
<path d="M173.809 276.821C173.449 276.821 173.173 276.546 173.173 276.186C173.173 273.413 174.846 270.978 177.451 269.983L189.034 265.601C189.351 265.474 189.733 265.643 189.86 265.961C189.987 266.278 189.817 266.66 189.5 266.787L177.917 271.169C175.82 271.973 174.444 273.942 174.444 276.186C174.444 276.546 174.169 276.821 173.809 276.821Z" fill="#73325A"/>
<path d="M173.809 283.808C173.449 283.808 173.173 283.532 173.173 283.173C173.173 280.399 174.846 277.965 177.451 276.97L189.034 272.587C189.351 272.46 189.733 272.63 189.86 272.947C189.987 273.265 189.817 273.646 189.5 273.773L177.917 278.155C175.82 278.96 174.444 280.928 174.444 283.173C174.444 283.532 174.169 283.808 173.809 283.808Z" fill="#73325A"/>
<path d="M177.683 284.718C177.429 284.718 177.175 284.549 177.091 284.295C176.963 283.956 177.133 283.596 177.472 283.49L189.055 279.32C189.394 279.192 189.754 279.362 189.859 279.701C189.986 280.039 189.817 280.399 189.478 280.505L177.895 284.676C177.832 284.697 177.747 284.718 177.683 284.718Z" fill="#73325A"/>
<path d="M188.06 260.139C188.06 260.139 198.901 232.47 202.374 232.936C205.847 233.401 192.761 258.361 192.761 258.361L188.06 260.139Z" fill="#FE5244"/>
<path d="M331.079 208.082L328.581 213.777L360.577 250.931L367.205 234.46L331.079 208.082Z" fill="#73325A"/>
<path d="M467.958 223.514L481.087 312.007L384.548 284.93L367.205 234.438L322.44 201.73L338.152 183.015C352.17 166.312 372.859 156.658 394.67 156.658H425.692C452.67 156.658 477.509 171.393 490.447 195.061L500.505 212.463C500.505 212.463 497.477 208.018 481.151 212.485C466.773 216.443 467.958 223.514 467.958 223.514Z" fill="#3FB1B5"/>
<path d="M367.205 234.672C367.163 234.672 367.099 234.672 367.057 234.65C366.718 234.566 366.506 234.227 366.591 233.888L371.61 212.125C371.694 211.786 372.033 211.575 372.372 211.659C372.711 211.744 372.922 212.083 372.838 212.421L367.819 234.185C367.756 234.481 367.502 234.672 367.205 234.672Z" fill="white"/>
<path d="M478.652 291.979C478.355 291.979 478.08 291.768 478.017 291.45L461.69 189.98C461.627 189.641 461.86 189.303 462.22 189.26C462.558 189.197 462.897 189.43 462.939 189.79L479.266 291.259C479.329 291.598 479.097 291.937 478.737 291.979C478.715 291.979 478.694 291.979 478.652 291.979Z" fill="white"/>
<path d="M480.876 312.641C480.812 312.641 480.77 312.641 480.706 312.62L384.357 285.14C384.019 285.035 383.828 284.696 383.913 284.357C384.018 284.018 384.357 283.828 384.696 283.913L481.045 311.392C481.384 311.498 481.574 311.836 481.49 312.175C481.405 312.45 481.151 312.641 480.876 312.641Z" fill="white"/>
<path d="M389.735 142.515V156.742L414.85 156.53V131.422L389.735 142.515Z" fill="#A0505A"/>
<path d="M416.883 127.04V127.421C416.883 131.232 414.003 134.323 410.191 134.323H408.709C407.756 138.091 399.286 142.495 393.272 142.495H386.263C378.597 142.495 372.732 135.614 373.981 128.035L374.32 125.982L372.245 124.817C371.059 124.14 370.72 122.595 371.546 121.494L376.035 115.566L377.009 109.723C377.793 104.917 380.948 101.001 385.14 99.0742C386.792 117.683 403.224 119.885 407.565 120.139H409.979C413.791 120.139 416.883 123.23 416.883 127.04Z" fill="#A0505A"/>
<path d="M405.766 129.496C405.406 129.496 405.13 129.221 405.13 128.861C405.13 125.516 407.862 122.785 411.208 122.785C411.568 122.785 411.843 123.06 411.843 123.42C411.843 123.78 411.568 124.055 411.208 124.055C408.561 124.055 406.401 126.215 406.401 128.861C406.401 129.221 406.126 129.496 405.766 129.496Z" fill="#73325A"/>
<path d="M382.811 120.33C383.408 120.33 383.891 119.212 383.891 117.832C383.891 116.452 383.408 115.334 382.811 115.334C382.215 115.334 381.731 116.452 381.731 117.832C381.731 119.212 382.215 120.33 382.811 120.33Z" fill="#73325A"/>
<path d="M387.216 114.676C387.025 114.676 386.834 114.591 386.707 114.422C383.891 110.527 381.265 110.738 381.223 110.738C380.863 110.781 380.566 110.527 380.524 110.167C380.482 109.828 380.736 109.511 381.096 109.468C381.223 109.447 384.484 109.193 387.724 113.66C387.936 113.935 387.872 114.337 387.576 114.549C387.47 114.634 387.343 114.676 387.216 114.676Z" fill="#73325A"/>
<path d="M407.566 120.139H409.98C413.791 120.139 416.883 123.23 416.883 127.041V127.422C416.883 131.232 414.003 134.323 410.191 134.323L408.561 135.466C401.7 139.87 392.213 157.187 394.543 169.445C397.168 183.227 409.175 186.297 420.271 184.18C431.367 182.063 439.456 175.606 436.83 161.802C436.534 160.172 436.047 158.542 435.433 156.933C435.623 156.997 435.793 157.06 435.983 157.124C449.324 160.765 464.994 161.189 469.314 150.773C473.633 140.357 472.659 130.047 459.679 124.67C452.14 121.536 441.891 121.558 433.95 123.717C437.953 109.808 430.838 94.3324 417.772 92.7869C397.253 90.3524 385.479 98.8205 385.162 99.0534C385.141 101.509 386.813 118.932 407.566 120.139Z" fill="#73325A"/>
<path d="M435.983 157.779C435.687 157.779 435.411 157.568 435.369 157.271C433.124 145.522 423.511 139.043 423.405 138.98C423.235 138.874 423.129 138.662 423.129 138.451C423.129 138.239 423.235 138.048 423.405 137.921C429.969 133.285 432.807 126.595 433.908 123.039C434.014 122.7 434.374 122.509 434.691 122.615C435.03 122.721 435.221 123.081 435.115 123.398C434.014 126.997 431.219 133.603 424.845 138.429C427.238 140.229 434.628 146.538 436.618 157.017C436.682 157.356 436.449 157.695 436.11 157.758C436.068 157.779 436.025 157.779 435.983 157.779Z" fill="white"/>
<path d="M440.24 123.399H434.628C434.268 123.399 433.993 123.124 433.993 122.764V117.154C433.993 113.873 436.661 111.205 439.944 111.205H440.24C443.522 111.205 446.19 113.873 446.19 117.154V117.45C446.212 119.017 445.597 120.52 444.475 121.642C443.353 122.764 441.849 123.399 440.24 123.399ZM435.264 122.129H440.24C441.511 122.129 442.675 121.642 443.565 120.732C444.433 119.843 444.92 118.678 444.92 117.45V117.154C444.92 114.571 442.823 112.475 440.24 112.475H439.944C437.36 112.475 435.264 114.571 435.264 117.154V122.129Z" fill="#FE5244"/>
<path d="M443.374 131.995C441.108 131.995 438.927 130.894 437.635 128.862L434.035 123.146C433.845 122.85 433.929 122.447 434.226 122.278L439.943 118.679C441.468 117.726 443.289 117.409 445.047 117.811C446.804 118.213 448.308 119.272 449.282 120.796L449.621 121.325C450.595 122.85 450.891 124.67 450.489 126.427C450.087 128.185 449.028 129.688 447.503 130.662L446.974 131C445.873 131.657 444.623 131.995 443.374 131.995ZM435.454 122.998L438.715 128.185C440.325 130.725 443.734 131.487 446.317 129.878L446.847 129.54C448.096 128.756 448.943 127.55 449.261 126.11C449.578 124.67 449.324 123.21 448.541 121.961L448.202 121.431C447.418 120.182 446.211 119.335 444.771 119.018C443.331 118.7 441.87 118.954 440.621 119.738L435.454 122.998Z" fill="#FE5244"/>
<path d="M408.688 148.931C408.54 148.931 408.391 148.931 408.243 148.91C406.655 148.783 405.215 148.063 404.177 146.857L403.987 146.624C402.949 145.438 402.441 143.914 402.547 142.347C402.653 140.759 403.373 139.299 404.58 138.261L408.561 134.451C408.688 134.324 408.857 134.26 409.027 134.281C409.196 134.281 409.365 134.366 409.471 134.493L413.389 138.918C414.426 140.124 414.956 141.67 414.829 143.258C414.702 144.845 413.982 146.285 412.775 147.322L412.521 147.513C411.483 148.423 410.128 148.931 408.688 148.931ZM408.984 135.806L405.469 139.172L405.448 139.193C404.495 140.019 403.923 141.162 403.839 142.432C403.754 143.681 404.156 144.867 404.961 145.798C404.961 145.798 404.961 145.819 404.982 145.819L405.173 146.052C405.977 146.984 407.1 147.555 408.349 147.661C409.598 147.746 410.805 147.344 411.758 146.539L412.012 146.327C412.944 145.523 413.516 144.401 413.622 143.152C413.706 141.903 413.304 140.696 412.499 139.743L408.984 135.806Z" fill="#FE5244"/>
<path d="M416.798 146.603C413.834 146.603 411.102 144.634 410.255 141.649L408.455 135.15C408.37 134.811 408.561 134.472 408.9 134.366L415.401 132.567C417.137 132.08 418.958 132.313 420.525 133.181C422.092 134.07 423.236 135.51 423.723 137.245L423.892 137.859C424.379 139.595 424.146 141.416 423.278 142.983C422.389 144.549 420.949 145.692 419.212 146.179L418.598 146.349C417.984 146.539 417.391 146.603 416.798 146.603ZM411.483 141.31C412.309 144.211 415.337 145.947 418.238 145.142L418.852 144.973C420.271 144.57 421.436 143.66 422.156 142.39C422.876 141.12 423.045 139.638 422.664 138.219L422.494 137.605C422.092 136.187 421.182 135.023 419.911 134.303C418.641 133.583 417.158 133.414 415.739 133.795L409.853 135.425L411.483 141.31Z" fill="#FE5244"/>
<path d="M316.193 550.343C316.15 550.343 316.108 550.343 316.066 550.322C315.727 550.259 315.494 549.92 315.579 549.56L352.466 376.957C352.53 376.619 352.869 376.386 353.229 376.471C353.568 376.534 353.8 376.873 353.716 377.233L316.807 549.835C316.743 550.132 316.489 550.343 316.193 550.343Z" fill="#FFCF2D"/>
<path d="M484.369 550.343C484.073 550.343 483.818 550.131 483.755 549.835L446.867 377.232C446.804 376.894 447.015 376.555 447.354 376.47C447.693 376.407 448.032 376.618 448.117 376.957L485.004 549.559C485.068 549.898 484.856 550.237 484.517 550.322C484.454 550.343 484.411 550.343 484.369 550.343Z" fill="#FFCF2D"/>
<path d="M475.687 512.024H324.367C324.007 512.024 323.731 511.749 323.731 511.389C323.731 511.029 324.007 510.754 324.367 510.754H475.687C476.047 510.754 476.322 511.029 476.322 511.389C476.322 511.749 476.047 512.024 475.687 512.024Z" fill="#FFCF2D"/>
<path d="M476.512 377.104H324.027C322.1 377.104 320.533 375.538 320.533 373.611V364.317C320.533 362.391 322.1 360.824 324.027 360.824H476.512C478.439 360.824 480.006 362.391 480.006 364.317V373.611C480.006 375.538 478.439 377.104 476.512 377.104Z" fill="white"/>
<path d="M476.512 377.74H324.027C321.74 377.74 319.898 375.898 319.898 373.612V364.318C319.898 362.031 321.74 360.189 324.027 360.189H476.512C478.799 360.189 480.642 362.031 480.642 364.318V373.612C480.642 375.898 478.799 377.74 476.512 377.74ZM324.027 361.46C322.46 361.46 321.168 362.751 321.168 364.318V373.612C321.168 375.178 322.46 376.47 324.027 376.47H476.512C478.079 376.47 479.371 375.178 479.371 373.612V364.318C479.371 362.751 478.079 361.46 476.512 361.46H324.027Z" fill="#66B0F0"/>
</svg>
