<svg width="354" height="246" viewBox="0 0 354 246" fill="none" xmlns="http://www.w3.org/2000/svg">
<g clip-path="url(#clip0_1_304)">
<path d="M337.003 211.79V246H285.535L295.563 193.466C295.241 195.54 301.661 199.429 310.444 203.328C313.597 204.728 317.112 206.118 320.866 207.435C326.923 209.571 332.502 211.023 337.003 211.79C336.992 211.79 337.003 211.79 337.003 211.79Z" fill="#9A3B82"/>
<path d="M337.003 201.502V210.659C332.502 209.892 326.933 208.45 320.856 206.314C306.535 201.285 295.511 195.073 296.133 192.284C296.144 192.242 296.154 192.201 296.164 192.17C297.129 189.442 309.812 191.33 324.33 196.421C328.997 198.06 333.207 199.75 336.744 201.378C336.827 201.42 336.909 201.461 337.003 201.502Z" fill="#FFCF2D"/>
<path d="M329.94 122.235C324.921 122.235 320.856 126.3 320.856 131.309V156.176C320.856 161.185 316.79 165.25 311.782 165.25H275.402C280.422 165.25 284.476 161.185 284.476 156.176V131.309C284.476 126.29 288.542 122.235 293.55 122.235H329.94Z" fill="white"/>
<path fill-rule="evenodd" clip-rule="evenodd" d="M293.55 122.495C288.685 122.495 284.736 126.433 284.736 131.309V156.176C284.736 160.251 282.126 163.719 278.48 164.99H311.782C316.647 164.99 320.596 161.041 320.596 156.176V131.309C320.596 127.234 323.213 123.766 326.861 122.495H293.55ZM329.94 121.976H293.55C288.399 121.976 284.217 126.147 284.217 131.309V156.176C284.217 161.042 280.278 164.99 275.402 164.99V165.509H311.782C316.934 165.509 321.115 161.328 321.115 156.176V131.309C321.115 126.444 325.064 122.495 329.94 122.495V121.976Z" fill="#FFCF2D"/>
<path d="M314.032 135.105H290.865V156.602H314.032V135.105Z" fill="white"/>
<path fill-rule="evenodd" clip-rule="evenodd" d="M290.605 134.845H314.291V156.861H290.605V134.845ZM291.124 135.364V156.342H313.773V135.364H291.124Z" fill="#FFCF2D"/>
<path fill-rule="evenodd" clip-rule="evenodd" d="M290.865 137.915H314.022V138.434H290.865V137.915Z" fill="#FFCF2D"/>
<path fill-rule="evenodd" clip-rule="evenodd" d="M290.865 140.985H314.022V141.503H290.865V140.985Z" fill="#FFCF2D"/>
<path fill-rule="evenodd" clip-rule="evenodd" d="M290.865 144.064H314.022V144.583H290.865V144.064Z" fill="#FFCF2D"/>
<path fill-rule="evenodd" clip-rule="evenodd" d="M290.865 147.134H314.022V147.653H290.865V147.134Z" fill="#FFCF2D"/>
<path fill-rule="evenodd" clip-rule="evenodd" d="M290.865 150.214H314.022V150.732H290.865V150.214Z" fill="#FFCF2D"/>
<path fill-rule="evenodd" clip-rule="evenodd" d="M290.865 153.283H314.022V153.801H290.865V153.283Z" fill="#FFCF2D"/>
<path d="M320.856 131.309C320.856 126.321 324.88 122.277 329.847 122.235C334.825 122.277 338.838 126.321 338.838 131.309H320.856Z" fill="#66B0F0"/>
<path fill-rule="evenodd" clip-rule="evenodd" d="M329.847 121.976L329.849 121.976C334.97 122.019 339.098 126.179 339.098 131.309V131.568H320.597V131.309C320.597 126.179 324.735 122.019 329.845 121.976L329.847 121.976ZM329.847 122.495C325.109 122.535 321.256 126.325 321.119 131.05H338.575C338.439 126.325 334.595 122.535 329.847 122.495Z" fill="#FFCF2D"/>
<path d="M311.823 165.478C311.813 165.478 311.792 165.478 311.782 165.478H275.537C275.517 165.478 275.496 165.478 275.475 165.478C271.752 165.426 268.569 163.124 267.22 159.868H303.537C304.896 163.124 308.08 165.426 311.823 165.478Z" fill="#FFCF2D"/>
<path d="M292.379 132.636H288.19V129.276H290.16V131.143C290.16 131.184 290.181 131.215 290.201 131.226L290.212 131.236L292.379 132.636Z" fill="#FE5244"/>
<path d="M294.007 130.438V130.884C294.007 130.967 293.997 131.05 293.997 131.133C293.997 131.154 293.986 131.185 293.986 131.205C293.976 131.247 293.976 131.288 293.965 131.33C293.851 131.9 293.509 132.367 293.084 132.543C293.053 132.554 293.022 132.564 292.991 132.574C292.939 132.595 292.877 132.605 292.825 132.616C292.804 132.616 292.783 132.626 292.763 132.626L290.388 131.081C290.408 130.718 290.637 130.428 290.906 130.428H294.007V130.438Z" fill="#FE5244"/>
<path d="M317.144 129.276V132.636H312.954L315.111 131.236L315.122 131.226C315.132 131.215 315.132 131.215 315.143 131.215C315.143 131.205 315.153 131.205 315.153 131.195C315.153 131.195 315.153 131.184 315.163 131.184C315.163 131.174 315.163 131.174 315.174 131.174C315.174 131.174 315.174 131.174 315.174 131.163C315.174 131.153 315.174 131.153 315.174 131.143V129.276H317.144Z" fill="#FE5244"/>
<path d="M314.965 131.092L312.59 132.637C312.528 132.627 312.466 132.616 312.404 132.606C312.383 132.596 312.362 132.596 312.342 132.585C312.31 132.575 312.29 132.564 312.259 132.554C312.238 132.544 312.207 132.533 312.186 132.523C311.864 132.347 311.595 132.004 311.46 131.579C311.439 131.517 311.419 131.455 311.408 131.393C311.398 131.372 311.398 131.341 311.387 131.31C311.367 131.175 311.346 131.04 311.346 130.895V130.449H314.457C314.716 130.439 314.944 130.729 314.965 131.092Z" fill="#FE5244"/>
<path d="M314.966 127.576V130.501C314.945 130.48 314.924 130.449 314.904 130.428C314.862 130.387 314.821 130.355 314.779 130.324C314.676 130.262 314.561 130.221 314.447 130.221H290.896C290.772 130.221 290.658 130.262 290.565 130.324C290.523 130.355 290.482 130.387 290.44 130.428C290.419 130.449 290.399 130.469 290.378 130.501V127.576C290.378 127.182 290.606 126.871 290.896 126.871H314.447C314.727 126.871 314.966 127.193 314.966 127.576Z" fill="#FE5244"/>
<path d="M337.003 170.01V210.659H336.993C332.492 209.892 326.923 208.451 320.846 206.314C317.092 204.997 313.576 203.598 310.424 202.208L312.114 192.771L314.987 176.75C305.975 173.929 304.513 165.26 304.513 165.26H311.761C316.781 165.26 320.836 161.195 320.836 156.187V153.2H316.179C312.913 153.2 310.258 149.985 310.258 146.719V145.661H320.607C322.526 145.661 324.33 146.563 325.481 148.098L333.052 158.209C335.624 161.61 337.003 165.748 337.003 170.01Z" fill="#A0505A"/>
<path d="M337.003 201.502V210.659H336.993C332.492 209.892 326.923 208.45 320.846 206.314C317.092 204.997 313.577 203.597 310.424 202.208L312.114 192.771C315.848 193.684 319.996 194.918 324.31 196.432C328.977 198.07 333.187 199.76 336.713 201.388C336.827 201.419 336.91 201.461 337.003 201.502Z" fill="#73325A"/>
<path d="M321.312 153.2H316.314C313.047 153.2 310.392 149.985 310.392 146.719V145.661H321.312V153.2Z" fill="#A0505A"/>
<path fill-rule="evenodd" clip-rule="evenodd" d="M318.079 163.543C318.079 163.543 318.08 163.543 318.171 163.3C318.262 163.058 318.262 163.058 318.262 163.058L318.263 163.058L318.264 163.059L318.269 163.061C318.273 163.062 318.279 163.064 318.287 163.067C318.302 163.073 318.324 163.082 318.352 163.094C318.408 163.117 318.488 163.152 318.591 163.2C318.796 163.295 319.087 163.441 319.437 163.645C320.138 164.052 321.077 164.694 322.037 165.631C323.96 167.509 325.958 170.568 326.29 175.291L325.773 175.327C325.451 170.748 323.519 167.803 321.675 166.002C320.751 165.1 319.848 164.483 319.177 164.093C318.841 163.898 318.564 163.759 318.372 163.67C318.276 163.625 318.202 163.593 318.152 163.572C318.127 163.562 318.108 163.554 318.096 163.55C318.09 163.547 318.085 163.545 318.083 163.544L318.08 163.543L318.079 163.543ZM318.079 163.543C318.079 163.543 318.079 163.543 318.079 163.543L318.079 163.543Z" fill="#73325A"/>
<path fill-rule="evenodd" clip-rule="evenodd" d="M319.913 177.227H315.007V176.708H319.913V177.227Z" fill="#73325A"/>
<path fill-rule="evenodd" clip-rule="evenodd" d="M323.834 63.6291C323.448 58.753 317.978 56.0825 313.893 58.7828L310.606 60.9603L310.262 60.4416L313.55 58.2638C318.031 55.3022 324.031 58.2314 324.454 63.58L325.169 72.6329C325.169 72.6329 325.169 72.6328 325.169 72.6329C325.545 77.3705 330.758 80.0705 334.843 77.6474L336.916 76.4136L337.235 76.9483L335.161 78.1823L335.16 78.1825C330.679 80.8407 324.961 77.8787 324.549 72.6821L323.834 63.6291Z" fill="#FFCF2D"/>
<path d="M262.657 27.0715L304.896 51.5859L326.165 99.3392L301.764 82.9029L275.247 51.8348L262.657 27.0715Z" fill="#9A3B82"/>
<path fill-rule="evenodd" clip-rule="evenodd" d="M305.659 50.6841L262.616 25.6914L262.928 25.1533L306.145 50.2471L327.912 99.0981L327.344 99.3513L305.659 50.6841Z" fill="#FFCF2D"/>
<path d="M301.324 83.9572C303.297 82.2909 298.862 73.7919 291.417 64.9741C283.972 56.1562 276.337 50.3587 274.363 52.025C272.39 53.6912 276.825 62.1902 284.27 71.0081C291.715 79.8259 299.35 85.6234 301.324 83.9572Z" fill="white"/>
<path d="M300.124 84.4665C302.058 82.8335 297.708 74.4998 290.407 65.8526C283.106 57.2054 275.62 51.5193 273.685 53.1523C271.751 54.7853 276.101 63.119 283.402 71.7662C290.703 80.4134 298.19 86.0995 300.124 84.4665Z" fill="white"/>
<path fill-rule="evenodd" clip-rule="evenodd" d="M275.31 59.7091C277.058 63.0562 279.958 67.2855 283.6 71.599C287.242 75.9126 290.925 79.4813 293.932 81.765C295.437 82.9082 296.762 83.7205 297.819 84.1466C298.347 84.3598 298.796 84.4708 299.16 84.4853C299.521 84.4997 299.779 84.4184 299.957 84.2685C300.134 84.1185 300.258 83.878 300.304 83.5193C300.351 83.1586 300.316 82.6975 300.195 82.1405C299.952 81.0269 299.373 79.5853 298.499 77.9099C296.752 74.5628 293.851 70.3334 290.209 66.0199C286.567 61.7064 282.884 58.1377 279.877 55.8539C278.372 54.7108 277.048 53.8985 275.991 53.4724C275.462 53.2592 275.013 53.1481 274.649 53.1337C274.288 53.1193 274.03 53.2005 273.853 53.3505C273.675 53.5005 273.552 53.7409 273.505 54.0997C273.458 54.4604 273.493 54.9215 273.614 55.4785C273.857 56.592 274.436 58.0336 275.31 59.7091ZM272.991 54.0331C273.048 53.5898 273.212 53.2126 273.518 52.9543C273.824 52.6961 274.223 52.5978 274.67 52.6156C275.115 52.6333 275.625 52.7661 276.184 52.9915C277.303 53.4424 278.67 54.2859 280.191 55.441C283.236 57.7539 286.946 61.3518 290.605 65.6854C294.264 70.0191 297.189 74.2801 298.958 77.67C299.842 79.363 300.445 80.8514 300.702 82.03C300.83 82.619 300.875 83.1444 300.818 83.5858C300.761 84.0292 300.597 84.4064 300.291 84.6646C299.985 84.9229 299.586 85.0212 299.139 85.0034C298.694 84.9857 298.184 84.8529 297.625 84.6275C296.506 84.1765 295.14 83.3331 293.619 82.1779C290.573 79.8651 286.863 76.2672 283.204 71.9335C279.545 67.5999 276.62 63.3388 274.851 59.949C273.967 58.256 273.365 56.7675 273.108 55.589C272.979 55 272.934 54.4745 272.991 54.0331Z" fill="#FFCF2D"/>
<path d="M305.27 80.6013L301.246 83.9922C301.993 83.3597 301.827 81.7627 300.925 79.5332C299.442 75.8623 295.968 70.501 291.343 65.005C286.707 59.5193 281.999 55.1951 278.628 53.1211C276.586 51.856 275.03 51.4205 274.283 52.053L278.307 48.6621C280.277 46.9925 288.263 52.4471 295.708 61.2718C303.154 70.0966 307.251 78.9421 305.27 80.6013Z" fill="#FFCF2D"/>
<path d="M348.254 67.6275C349.395 67.0778 350.505 66.5905 351.573 66.186C352.205 66.8497 352.755 67.6274 353.18 68.4985C353.605 69.3696 353.875 70.2821 353.999 71.1843C353.014 71.765 351.946 72.3457 350.816 72.8953C345.143 75.6434 339.979 76.6907 339.274 75.2389C338.558 73.7768 342.582 70.3755 348.254 67.6275Z" fill="#FFCF2D"/>
<path fill-rule="evenodd" clip-rule="evenodd" d="M338.237 75.0106C337.716 75.0106 337.294 75.4331 337.294 75.9543C337.294 76.4754 337.716 76.8979 338.237 76.8979C338.759 76.8979 339.181 76.4754 339.181 75.9543C339.181 75.4331 338.759 75.0106 338.237 75.0106ZM336.672 75.9543C336.672 75.0895 337.373 74.3884 338.237 74.3884C339.102 74.3884 339.803 75.0895 339.803 75.9543C339.803 76.8191 339.102 77.5201 338.237 77.5201C337.373 77.5201 336.672 76.8191 336.672 75.9543Z" fill="#9A3B82"/>
<path d="M264.183 202.095V246.001H214.166L220.575 198.32C220.575 200.249 230.334 202.655 242.374 203.692C254.414 204.739 264.183 204.023 264.183 202.095Z" fill="#66B0F0"/>
<path d="M263.955 200.964C263.955 202.893 254.279 203.608 242.353 202.561C230.427 201.514 220.752 199.108 220.752 197.19C220.752 195.261 230.427 194.545 242.353 195.593C254.29 196.63 263.955 199.035 263.955 200.964Z" fill="#3FB1B5"/>
<path fill-rule="evenodd" clip-rule="evenodd" d="M273.739 105.846L270.722 103.894L271.061 103.371L274.1 105.338L274.11 105.346C274.992 106.029 275.295 107.259 275.198 108.769C275.1 110.291 274.592 112.185 273.739 114.315C272.033 118.58 268.92 123.862 264.811 129.157C260.703 134.456 256.361 138.785 252.655 141.499C250.804 142.854 249.097 143.818 247.646 144.292C246.208 144.762 244.941 144.775 244.06 144.093L244.048 144.083L242.543 142.663L242.97 142.21L244.452 143.61C245.085 144.091 246.087 144.147 247.453 143.701C248.816 143.255 250.462 142.334 252.287 140.997C255.934 138.326 260.236 134.043 264.32 128.775L264.32 128.775C268.403 123.513 271.482 118.281 273.162 114.084C274.002 111.983 274.485 110.159 274.577 108.729C274.669 107.293 274.365 106.338 273.739 105.846Z" fill="#66B0F0"/>
<path d="M228.84 152.827L263.218 121.365L275.237 84.7695L238.547 118.109L228.84 152.827Z" fill="#66B0F0"/>
<path fill-rule="evenodd" clip-rule="evenodd" d="M276.806 84.9309C276.97 84.9845 277.059 85.1603 277.005 85.3235L264.774 122.577L227.297 156.873C227.171 156.989 226.974 156.981 226.858 156.854C226.742 156.727 226.751 156.53 226.877 156.414L264.233 122.228L276.414 85.1294C276.467 84.9662 276.643 84.8773 276.806 84.9309Z" fill="#FE5244"/>
<path fill-rule="evenodd" clip-rule="evenodd" d="M214.013 152.26L246.659 121.036L247.089 121.486L214.443 152.71L214.443 152.71C212.636 154.434 209.682 152.804 210.19 150.348L211.103 145.92L211.103 145.92C211.46 144.197 209.504 142.939 208.085 143.974L208.085 143.974L197.3 151.824L196.934 151.321L207.719 143.471C207.719 143.471 207.719 143.471 207.719 143.471M211.712 146.046C212.184 143.766 209.598 142.1 207.719 143.471L211.712 146.046ZM211.712 146.046L210.799 150.474L210.799 150.474C210.415 152.331 212.647 153.563 214.013 152.26L214.013 152.26" fill="#FE5244"/>
<path d="M188.333 162.751C187.369 163.56 186.404 164.307 185.471 164.96C184.693 164.473 183.978 163.861 183.345 163.114C182.723 162.368 182.236 161.559 181.893 160.709C182.702 159.9 183.594 159.081 184.558 158.261C189.381 154.207 194.13 151.915 195.178 153.159C196.215 154.404 193.156 158.697 188.333 162.751Z" fill="#FFCF2D"/>
<path fill-rule="evenodd" clip-rule="evenodd" d="M196.112 151.385C195.59 151.385 195.168 151.808 195.168 152.329C195.168 152.85 195.59 153.272 196.112 153.272C196.633 153.272 197.055 152.85 197.055 152.329C197.055 151.808 196.633 151.385 196.112 151.385ZM194.546 152.329C194.546 151.464 195.247 150.763 196.112 150.763C196.976 150.763 197.678 151.464 197.678 152.329C197.678 153.194 196.976 153.895 196.112 153.895C195.247 153.895 194.546 153.194 194.546 152.329Z" fill="#FE5244"/>
<path d="M248.42 169.046V202.956C246.501 202.873 244.458 202.748 242.353 202.562C234.585 201.888 227.783 200.622 223.977 199.295L224.547 195.541L226.455 182.942H223.987C220.471 182.942 217.63 180.1 217.63 176.585V164.1C217.63 161.632 218.522 159.257 220.15 157.401L228.27 148.12C228.799 147.518 229.794 147.892 229.794 148.69V161.31C229.794 162.824 229.255 164.286 228.27 165.437L227.544 166.288H236.359C237.634 166.288 238.381 164.867 237.665 163.809C236.577 162.223 235.145 159.962 233.787 157.349C231.08 152.174 235.778 149.281 235.778 149.281L246.532 163.229C247.756 164.919 248.42 166.962 248.42 169.046Z" fill="#FFCF2D"/>
<path fill-rule="evenodd" clip-rule="evenodd" d="M229.795 147.756C229.938 147.756 230.054 147.872 230.054 148.016V161.31C230.054 162.885 229.493 164.407 228.468 165.605L228.467 165.606M228.467 165.606L227.742 166.456C227.649 166.565 227.485 166.577 227.376 166.485C227.267 166.392 227.254 166.228 227.347 166.119L228.073 165.269L228.073 165.268C229.018 164.164 229.536 162.762 229.536 161.31V148.016C229.536 147.872 229.652 147.756 229.795 147.756" fill="white"/>
<path fill-rule="evenodd" clip-rule="evenodd" d="M227.716 166.083C227.823 166.179 227.833 166.343 227.737 166.449L221.909 172.993C221.814 173.1 221.65 173.109 221.543 173.014C221.436 172.919 221.427 172.755 221.522 172.648L227.35 166.105C227.445 165.998 227.609 165.988 227.716 166.083Z" fill="white"/>
<path fill-rule="evenodd" clip-rule="evenodd" d="M229.794 155.275C229.937 155.275 230.053 155.391 230.053 155.534C230.053 157.11 229.492 158.632 228.467 159.83C228.467 159.83 228.467 159.83 228.467 159.83L227.739 160.682L221.92 167.217C221.824 167.324 221.66 167.334 221.554 167.239C221.447 167.143 221.437 166.979 221.532 166.873L227.348 160.342L228.073 159.493C229.018 158.389 229.535 156.987 229.535 155.534C229.535 155.391 229.651 155.275 229.794 155.275Z" fill="white"/>
<path fill-rule="evenodd" clip-rule="evenodd" d="M229.795 149.509C229.938 149.509 230.054 149.625 230.054 149.768C230.054 151.344 229.493 152.866 228.468 154.064C228.468 154.064 228.468 154.064 228.468 154.064L227.74 154.916L221.921 161.451C221.825 161.558 221.661 161.568 221.554 161.472C221.448 161.377 221.438 161.213 221.533 161.106L227.349 154.575L228.074 153.727C229.019 152.623 229.536 151.221 229.536 149.768C229.536 149.625 229.652 149.509 229.795 149.509Z" fill="white"/>
<path fill-rule="evenodd" clip-rule="evenodd" d="M226.195 183.284C226.195 183.14 226.311 183.024 226.454 183.024H230.924C231.067 183.024 231.183 183.14 231.183 183.284C231.183 183.427 231.067 183.543 230.924 183.543H226.454C226.311 183.543 226.195 183.427 226.195 183.284Z" fill="white"/>
<path d="M248.419 196.256V202.955C246.501 202.872 244.458 202.748 242.353 202.561C234.585 201.887 227.782 200.622 223.976 199.295L224.547 195.541C228.446 194.97 234.969 194.939 242.363 195.582C244.458 195.779 246.49 195.997 248.419 196.256Z" fill="#FE5244"/>
<path d="M198.227 246H140.392V188.665C140.392 191.112 149.901 193.093 161.64 193.093C173.38 193.093 182.889 191.112 182.889 188.665V188.655L198.227 246Z" fill="#3FB1B5"/>
<path d="M182.734 187.525C182.734 189.982 173.328 191.963 161.713 191.963C150.098 191.963 140.692 189.982 140.692 187.535V187.525C140.723 185.088 150.119 183.107 161.713 183.107C173.307 183.107 182.713 185.088 182.734 187.525Z" fill="#66B0F0"/>
<path d="M182.733 187.566C182.661 189.993 173.276 191.963 161.713 191.963C159.483 191.963 157.347 191.891 155.335 191.756V170.425H144.363C142.963 170.425 141.833 169.295 141.833 167.895V166.184C141.833 165.416 142.175 164.732 142.714 164.265C142.175 163.799 141.833 163.114 141.833 162.347V160.636C141.833 159.962 142.102 159.34 142.538 158.894C142.102 158.437 141.833 157.826 141.833 157.152V155.441C141.833 154.746 142.113 154.113 142.569 153.647C142.113 153.19 141.833 152.558 141.833 151.863V148.762C141.833 147.362 142.963 146.232 144.363 146.232H158.373C158.84 145.963 159.597 145.009 158.311 144.449L155.304 143.743C152.919 142.551 151.404 140.57 151.404 137.895H161.982C163.756 137.895 165.342 139.015 165.944 140.684L182.474 186.83L182.733 187.566Z" fill="#E57281"/>
<path d="M182.785 187.587C182.754 187.556 182.733 187.535 182.733 187.535C182.733 189.983 173.327 191.963 161.712 191.963C159.483 191.963 157.346 191.891 155.334 191.756V183.325C157.346 183.19 159.493 183.118 161.712 183.118C172.186 183.118 180.877 184.735 182.474 186.84C182.515 186.892 182.629 187.172 182.785 187.587Z" fill="#9A3B82"/>
<path d="M158.613 117.404V125.814C158.613 130.387 154.91 134.089 150.337 134.089C145.764 134.089 142.062 130.387 142.062 125.814V117.404C142.062 119.457 145.764 121.116 150.337 121.116C154.91 121.116 158.613 119.457 158.613 117.404Z" fill="white"/>
<path d="M150.337 121.115C154.907 121.115 158.613 119.453 158.613 117.402C158.613 115.352 154.907 113.69 150.337 113.69C145.767 113.69 142.062 115.352 142.062 117.402C142.062 119.453 145.767 121.115 150.337 121.115Z" fill="#FFCF2D"/>
<path fill-rule="evenodd" clip-rule="evenodd" d="M141.751 102.719H158.924V125.803C158.924 128.988 157.191 131.764 154.62 133.248L154.465 132.979C154.465 132.985 154.465 132.991 154.465 132.997L154.609 133.249C153.351 133.969 151.887 134.389 150.337 134.389C148.811 134.389 147.377 133.992 146.13 133.29H146.127L146.081 133.264C146.075 133.261 146.07 133.257 146.065 133.254C146.062 133.253 146.06 133.251 146.058 133.25L146.054 133.248C143.484 131.764 141.751 128.988 141.751 125.803V102.719ZM154.381 132.668C156.728 131.28 158.302 128.727 158.302 125.803V103.342H142.373V125.803C142.373 128.734 143.955 131.293 146.312 132.678H146.314L146.357 132.703C146.364 132.707 146.37 132.71 146.376 132.714C146.379 132.715 146.381 132.717 146.383 132.718L146.385 132.719C147.553 133.388 148.9 133.767 150.337 133.767C151.774 133.767 153.132 133.378 154.3 132.709L154.372 132.668H154.381Z" fill="#FFCF2D"/>
<path d="M150.337 106.743C154.959 106.743 158.706 105.081 158.706 103.031C158.706 100.98 154.959 99.3184 150.337 99.3184C145.715 99.3184 141.968 100.98 141.968 103.031C141.968 105.081 145.715 106.743 150.337 106.743Z" fill="white"/>
<path fill-rule="evenodd" clip-rule="evenodd" d="M142.814 101.765C142.422 102.175 142.228 102.603 142.228 103.031C142.228 103.459 142.422 103.886 142.814 104.297C143.207 104.709 143.787 105.092 144.525 105.419C145.999 106.073 148.054 106.484 150.337 106.484C152.621 106.484 154.676 106.073 156.15 105.419C156.887 105.092 157.468 104.709 157.861 104.297C158.252 103.886 158.447 103.459 158.447 103.031C158.447 102.603 158.252 102.175 157.861 101.765C157.468 101.353 156.887 100.97 156.15 100.643C154.676 99.9887 152.621 99.5776 150.337 99.5776C148.054 99.5776 145.999 99.9887 144.525 100.643C143.787 100.97 143.207 101.353 142.814 101.765ZM144.314 100.169C145.869 99.479 147.999 99.0591 150.337 99.0591C152.676 99.0591 154.805 99.479 156.36 100.169C157.137 100.513 157.782 100.931 158.236 101.407C158.692 101.884 158.965 102.434 158.965 103.031C158.965 103.628 158.692 104.177 158.236 104.655C157.782 105.131 157.137 105.548 156.36 105.893C154.805 106.582 152.676 107.002 150.337 107.002C147.999 107.002 145.869 106.582 144.314 105.893C143.537 105.548 142.893 105.131 142.438 104.655C141.983 104.177 141.709 103.628 141.709 103.031C141.709 102.434 141.983 101.884 142.438 101.407C142.893 100.931 143.537 100.513 144.314 100.169Z" fill="#FFCF2D"/>
<path d="M150.337 103.591C151.013 103.591 151.561 103.043 151.561 102.367C151.561 101.691 151.013 101.143 150.337 101.143C149.661 101.143 149.114 101.691 149.114 102.367C149.114 103.043 149.661 103.591 150.337 103.591Z" fill="#FFCF2D"/>
<path d="M147.641 128.582C148.236 128.582 148.719 128.099 148.719 127.503C148.719 126.908 148.236 126.425 147.641 126.425C147.045 126.425 146.562 126.908 146.562 127.503C146.562 128.099 147.045 128.582 147.641 128.582Z" fill="white"/>
<path fill-rule="evenodd" clip-rule="evenodd" d="M147.641 126.685C147.188 126.685 146.821 127.052 146.821 127.504C146.821 127.956 147.188 128.323 147.641 128.323C148.093 128.323 148.46 127.956 148.46 127.504C148.46 127.052 148.093 126.685 147.641 126.685ZM146.303 127.504C146.303 126.765 146.902 126.166 147.641 126.166C148.38 126.166 148.978 126.765 148.978 127.504C148.978 128.243 148.38 128.842 147.641 128.842C146.902 128.842 146.303 128.243 146.303 127.504Z" fill="#FFCF2D"/>
<path d="M154.112 118.295C154.605 118.295 155.004 117.896 155.004 117.404C155.004 116.911 154.605 116.512 154.112 116.512C153.62 116.512 153.22 116.911 153.22 117.404C153.22 117.896 153.62 118.295 154.112 118.295Z" fill="white"/>
<path d="M145.484 124.985C145.976 124.985 146.376 124.586 146.376 124.093C146.376 123.6 145.976 123.201 145.484 123.201C144.991 123.201 144.592 123.6 144.592 124.093C144.592 124.586 144.991 124.985 145.484 124.985Z" fill="#FFCF2D"/>
<path d="M158.291 176.231H142.383C142.093 176.231 142.01 175.847 142.258 175.713L147.817 173.607C148.688 173.276 149.269 172.436 149.269 171.502V138.36C149.269 136.162 148.128 134.098 146.23 132.989C147.444 133.683 148.844 134.077 150.337 134.077C151.841 134.077 153.241 133.673 154.454 132.978C152.546 134.077 151.405 136.151 151.405 138.35V171.492C151.405 172.425 151.986 173.265 152.857 173.597L158.415 175.702C158.664 175.847 158.581 176.231 158.291 176.231Z" fill="white"/>
<path fill-rule="evenodd" clip-rule="evenodd" d="M152.822 133.967C152.037 134.207 151.204 134.338 150.337 134.338C149.469 134.338 148.632 134.209 147.843 133.968C148.918 135.152 149.528 136.721 149.528 138.361V171.503C149.528 172.544 148.881 173.481 147.909 173.851L147.909 173.851L142.374 175.947C142.374 175.947 142.374 175.947 142.373 175.947C142.373 175.948 142.372 175.949 142.372 175.95C142.371 175.953 142.37 175.958 142.371 175.965C142.372 175.969 142.373 175.971 142.374 175.972C142.374 175.972 142.374 175.972 142.375 175.972C142.376 175.972 142.379 175.973 142.383 175.973H158.291C158.295 175.973 158.297 175.972 158.299 175.972C158.299 175.972 158.3 175.972 158.3 175.972C158.301 175.971 158.302 175.968 158.303 175.964C158.304 175.957 158.304 175.949 158.301 175.944C158.3 175.941 158.299 175.939 158.297 175.937C158.297 175.936 158.296 175.935 158.295 175.935L152.765 173.84L152.765 173.84C151.793 173.47 151.146 172.534 151.146 171.493V138.351C151.146 136.718 151.751 135.149 152.822 133.967ZM150.337 133.819C151.793 133.819 153.149 133.428 154.325 132.754L154.583 133.204C152.76 134.254 151.664 136.24 151.664 138.351V171.493C151.664 172.318 152.178 173.062 152.949 173.355L152.949 173.356M147.725 173.366C147.725 173.366 147.725 173.366 147.725 173.366L142.15 175.477L142.135 175.485C141.896 175.615 141.817 175.869 141.866 176.081C141.915 176.297 142.103 176.491 142.383 176.491H158.291C158.572 176.491 158.759 176.297 158.808 176.079C158.857 175.866 158.778 175.614 158.546 175.479L158.527 175.468L152.949 173.356M147.725 173.366C148.496 173.072 149.01 172.328 149.01 171.503V138.361C149.01 136.251 147.915 134.275 146.099 133.213L146.359 132.765C147.534 133.437 148.89 133.819 150.337 133.819" fill="#FFCF2D"/>
<path d="M144.446 90.5762C145.225 90.5762 145.857 89.9448 145.857 89.1659C145.857 88.387 145.225 87.7556 144.446 87.7556C143.668 87.7556 143.036 88.387 143.036 89.1659C143.036 89.9448 143.668 90.5762 144.446 90.5762Z" fill="#FFCF2D"/>
<path d="M154.112 92.8474C154.788 92.8474 155.336 92.2996 155.336 91.6238C155.336 90.948 154.788 90.4001 154.112 90.4001C153.436 90.4001 152.888 90.948 152.888 91.6238C152.888 92.2996 153.436 92.8474 154.112 92.8474Z" fill="white"/>
<path fill-rule="evenodd" clip-rule="evenodd" d="M154.112 90.6594C153.579 90.6594 153.147 91.0911 153.147 91.6238C153.147 92.1564 153.579 92.5882 154.112 92.5882C154.644 92.5882 155.076 92.1564 155.076 91.6238C155.076 91.0911 154.644 90.6594 154.112 90.6594ZM152.629 91.6238C152.629 90.8048 153.293 90.1409 154.112 90.1409C154.931 90.1409 155.595 90.8048 155.595 91.6238C155.595 92.4427 154.931 93.1066 154.112 93.1066C153.293 93.1066 152.629 92.4427 152.629 91.6238Z" fill="#FFCF2D"/>
<path d="M148.119 97.6181C148.611 97.6181 149.011 97.2188 149.011 96.7263C149.011 96.2337 148.611 95.8345 148.119 95.8345C147.626 95.8345 147.227 96.2337 147.227 96.7263C147.227 97.2188 147.626 97.6181 148.119 97.6181Z" fill="white"/>
<path fill-rule="evenodd" clip-rule="evenodd" d="M148.117 96.0932C147.768 96.0932 147.485 96.3764 147.485 96.7258C147.485 97.0751 147.768 97.3583 148.117 97.3583C148.467 97.3583 148.75 97.0751 148.75 96.7258C148.75 96.3764 148.467 96.0932 148.117 96.0932ZM146.966 96.7258C146.966 96.09 147.482 95.5747 148.117 95.5747C148.753 95.5747 149.269 96.09 149.269 96.7258C149.269 97.3615 148.753 97.8768 148.117 97.8768C147.482 97.8768 146.966 97.3615 146.966 96.7258Z" fill="#FFCF2D"/>
<path d="M147.652 86.7604C148.059 86.7604 148.389 86.4307 148.389 86.0241C148.389 85.6175 148.059 85.2878 147.652 85.2878C147.246 85.2878 146.916 85.6175 146.916 86.0241C146.916 86.4307 147.246 86.7604 147.652 86.7604Z" fill="#FFCF2D"/>
<path d="M160.997 149.56V170.435H144.363C142.963 170.435 141.833 169.304 141.833 167.904V166.193C141.833 165.426 142.175 164.742 142.714 164.275C142.175 163.808 141.833 163.124 141.833 162.356V160.645C141.833 159.971 142.102 159.349 142.538 158.903C142.102 158.447 141.833 157.835 141.833 157.161V155.45C141.833 154.755 142.113 154.123 142.569 153.656C142.113 153.2 141.833 152.567 141.833 151.873V149.57H160.997V149.56Z" fill="#E57281"/>
<path fill-rule="evenodd" clip-rule="evenodd" d="M142.123 161.952C142.266 161.952 142.382 162.068 142.382 162.211C142.382 163.655 143.552 164.825 144.995 164.825H158.456C159.899 164.825 161.069 163.655 161.069 162.211C161.069 162.068 161.185 161.952 161.328 161.952C161.472 161.952 161.588 162.068 161.588 162.211C161.588 163.941 160.186 165.343 158.456 165.343H144.995C143.265 165.343 141.863 163.941 141.863 162.211C141.863 162.068 141.979 161.952 142.123 161.952Z" fill="#9A3B82"/>
<path fill-rule="evenodd" clip-rule="evenodd" d="M142.123 156.778C142.266 156.778 142.382 156.894 142.382 157.037C142.382 158.481 143.552 159.65 144.995 159.65H158.456C159.899 159.65 161.069 158.481 161.069 157.037C161.069 156.894 161.185 156.778 161.328 156.778C161.472 156.778 161.588 156.894 161.588 157.037C161.588 158.767 160.186 160.169 158.456 160.169H144.995C143.265 160.169 141.863 158.767 141.863 157.037C141.863 156.894 141.979 156.778 142.123 156.778Z" fill="#9A3B82"/>
<path fill-rule="evenodd" clip-rule="evenodd" d="M142.123 151.603C142.266 151.603 142.382 151.719 142.382 151.863C142.382 153.306 143.552 154.476 144.995 154.476H158.456C159.899 154.476 161.069 153.306 161.069 151.863C161.069 151.719 161.185 151.603 161.328 151.603C161.472 151.603 161.588 151.719 161.588 151.863C161.588 153.592 160.186 154.994 158.456 154.994H144.995C143.265 154.994 141.863 153.592 141.863 151.863C141.863 151.719 141.979 151.603 142.123 151.603Z" fill="#9A3B82"/>
<path fill-rule="evenodd" clip-rule="evenodd" d="M161.329 147.725C161.472 147.725 161.588 147.841 161.588 147.984V167.386C161.588 169.116 160.186 170.518 158.456 170.518H144.86C144.717 170.518 144.601 170.402 144.601 170.258C144.601 170.115 144.717 169.999 144.86 169.999H158.456C159.899 169.999 161.069 168.829 161.069 167.386V147.984C161.069 147.841 161.185 147.725 161.329 147.725Z" fill="#9A3B82"/>
<path fill-rule="evenodd" clip-rule="evenodd" d="M158.269 146.501C157.416 146.501 156.723 147.194 156.723 148.046C156.723 149.03 155.922 149.819 154.95 149.819H147.235C146.635 149.819 146.146 149.33 146.146 148.73C146.146 148.131 146.635 147.642 147.235 147.642H148.614C148.757 147.642 148.873 147.758 148.873 147.901C148.873 148.044 148.757 148.16 148.614 148.16H147.235C146.921 148.16 146.664 148.417 146.664 148.73C146.664 149.044 146.921 149.301 147.235 149.301H154.95C155.638 149.301 156.205 148.742 156.205 148.046C156.205 146.907 157.13 145.982 158.269 145.982H159.523C160.662 145.982 161.587 146.907 161.587 148.046V151.406C161.587 151.549 161.471 151.665 161.328 151.665C161.185 151.665 161.069 151.549 161.069 151.406V148.046C161.069 147.194 160.376 146.501 159.523 146.501H158.269Z" fill="#9A3B82"/>
<path d="M242.778 41.0289L208.256 76.4316L168.454 32.5567L211.896 1.98633L242.778 41.0289Z" fill="#3FB1B5"/>
<path fill-rule="evenodd" clip-rule="evenodd" d="M165.614 32.4115L211.12 0.50946L210.763 0L164.678 32.3082L206.677 78.3421L207.137 77.9228L165.614 32.4115Z" fill="#FFCF2D"/>
<path fill-rule="evenodd" clip-rule="evenodd" d="M218.764 45.4719C218.157 41.3687 214.342 38.5211 210.23 39.1285L207.627 39.5122L207.536 38.8966L210.139 38.513C210.139 38.513 210.139 38.513 210.139 38.513C214.593 37.8552 218.722 40.9392 219.38 45.3808L219.38 45.3811L221.651 60.8529C221.651 60.8529 221.651 60.8528 221.651 60.8529C222.388 65.8618 227.765 68.7294 232.336 66.5388L232.336 66.5387L243.194 61.3434L243.463 61.9047L232.605 67.0999" fill="#FFCF2D"/>
<path d="M257.172 64.589C258.282 65.1905 259.329 65.8127 260.283 66.4349C260.118 67.337 259.806 68.2288 259.35 69.0895C258.894 69.9399 258.313 70.6969 257.649 71.3294C256.602 70.8732 255.503 70.3443 254.393 69.7428C248.845 66.7459 244.977 63.1683 245.744 61.7477C246.512 60.327 251.624 61.5921 257.172 64.589Z" fill="#FFCF2D"/>
<path fill-rule="evenodd" clip-rule="evenodd" d="M244.563 60.3893C244.041 60.3893 243.619 60.8118 243.619 61.3329C243.619 61.8541 244.041 62.2766 244.563 62.2766C245.084 62.2766 245.506 61.8541 245.506 61.3329C245.506 60.8118 245.084 60.3893 244.563 60.3893ZM242.997 61.3329C242.997 60.4681 243.698 59.7671 244.563 59.7671C245.427 59.7671 246.128 60.4681 246.128 61.3329C246.128 62.1977 245.427 62.8988 244.563 62.8988C243.698 62.8988 242.997 62.1977 242.997 61.3329Z" fill="#66B0F0"/>
<path d="M121.175 207.155V246H76.2814V223.114C77.2562 225.665 88.6844 224.037 100.88 219.371C111.852 215.171 120.324 210.007 121.175 207.155Z" fill="#FE5244"/>
<path d="M121.175 206.025C120.314 208.877 111.852 214.041 100.87 218.241C88.6847 222.907 77.2566 224.535 76.2714 221.984C75.2862 219.433 85.1381 213.657 97.3336 208.991C109.519 204.324 120.2 202.613 121.175 205.164C121.279 205.424 121.279 205.714 121.175 206.025Z" fill="#66B0F0"/>
<path d="M111.666 180.266V213.18L109.187 214.435C106.678 215.659 103.867 216.872 100.88 218.013C95.3946 220.118 90.0538 221.6 85.7605 222.368L88.2287 212.672L92.2524 196.848C90.3442 196.848 88.5398 195.997 87.3264 194.525L70.8065 175.735C73.6376 173.152 77.8687 176.668 77.8687 176.668L76.282 168.569C75.9087 166.651 76.4687 164.66 77.7857 163.218L82.805 157.712C83.8005 156.623 85.5946 157.048 86.0094 158.458L89.5768 170.767C89.5768 170.767 98.4331 177.529 100.092 177.529C101.969 177.529 102.623 176.004 99.1175 170.996C96.4835 167.231 99.1175 164.483 99.1175 164.483L107.694 171.701C110.214 173.837 111.666 176.969 111.666 180.266Z" fill="white"/>
<path fill-rule="evenodd" clip-rule="evenodd" d="M82.9963 157.886C82.9963 157.886 82.9962 157.887 82.9961 157.887L77.9769 163.393C76.7153 164.774 76.1787 166.681 76.5363 168.519C76.5363 168.519 76.5363 168.519 76.5363 168.519L78.2629 177.333L77.7029 176.867L77.7008 176.866C77.6991 176.864 77.6965 176.862 77.6928 176.859C77.6855 176.853 77.6742 176.844 77.6592 176.832C77.6292 176.808 77.5841 176.773 77.5254 176.729C77.408 176.641 77.2361 176.517 77.0209 176.376C76.5896 176.093 75.9883 175.744 75.304 175.474C73.993 174.958 72.446 174.756 71.1749 175.761L87.5237 194.357L87.5264 194.36C88.6904 195.773 90.4214 196.588 92.2522 196.588H92.5856L88.4797 212.736L86.1112 222.04C90.3168 221.257 95.4826 219.806 100.787 217.77L100.788 217.77C103.767 216.632 106.57 215.422 109.072 214.203C109.072 214.202 109.073 214.202 109.073 214.202L111.406 213.021V180.266C111.406 177.045 109.988 173.986 107.526 171.899C107.526 171.899 107.526 171.899 107.526 171.898L99.1498 164.849C99.0966 164.919 99.033 165.007 98.9643 165.113C98.7692 165.413 98.5349 165.85 98.3789 166.399C98.0699 167.485 98.0599 169.032 99.3298 170.847C100.211 172.106 100.836 173.153 101.247 174.018C101.656 174.879 101.86 175.576 101.882 176.13C101.905 176.692 101.738 177.127 101.389 177.413C101.052 177.688 100.589 177.788 100.092 177.788C99.8217 177.788 99.455 177.658 99.0554 177.473C98.6426 177.283 98.1518 177.014 97.6164 176.695C96.5448 176.056 95.2763 175.207 94.0638 174.361C92.8504 173.514 91.6895 172.667 90.8321 172.032C90.4033 171.715 90.0503 171.45 89.8044 171.265C89.6815 171.172 89.5853 171.099 89.5198 171.05C89.487 171.025 89.462 171.006 89.4451 170.993L89.4194 170.974C89.4193 170.973 89.4193 170.973 89.5766 170.767L89.4193 170.973L89.3514 170.922L85.7605 158.531C85.7604 158.531 85.7604 158.531 85.7603 158.531C85.4015 157.313 83.8541 156.949 82.9963 157.886ZM89.8018 170.613L86.2582 158.386L86.2579 158.385C85.7867 156.783 83.7467 156.297 82.6134 157.537L82.6132 157.537L77.5941 163.043C76.2217 164.545 75.6383 166.619 76.0273 168.618L77.4858 176.063C77.4294 176.024 77.3692 175.984 77.3053 175.942C76.8549 175.647 76.2214 175.278 75.4941 174.992C74.0492 174.423 72.1574 174.151 70.6316 175.543L70.4435 175.715L87.1288 194.693C88.3209 196.138 90.0604 197.006 91.9208 197.099L87.9772 212.608L85.4098 222.694L85.8059 222.623C90.1174 221.852 95.4739 220.365 100.973 218.255C100.973 218.255 100.973 218.255 100.973 218.255L100.88 218.012L100.973 218.255C100.973 218.255 100.973 218.255 100.973 218.255C103.966 217.112 106.783 215.895 109.301 214.668L109.302 214.667L109.304 214.666L111.925 213.339V180.266C111.925 176.892 110.439 173.688 107.861 171.503L99.0984 164.128L98.9302 164.304L99.1174 164.483C98.9302 164.304 98.9301 164.304 98.93 164.304L98.9289 164.305L98.9266 164.308C98.9248 164.31 98.9224 164.312 98.9193 164.315C98.9133 164.322 98.9049 164.331 98.8944 164.343C98.8734 164.367 98.8439 164.401 98.8079 164.445C98.736 164.534 98.638 164.663 98.5296 164.83C98.3131 165.163 98.0535 165.648 97.8802 166.257C97.5308 167.485 97.5408 169.195 98.9049 171.144C99.7763 172.389 100.384 173.411 100.778 174.241C101.174 175.074 101.346 175.697 101.364 176.151C101.382 176.595 101.252 176.854 101.061 177.011C100.856 177.178 100.534 177.269 100.092 177.269C99.9478 177.269 99.6748 177.188 99.2725 177.003C98.8833 176.823 98.4101 176.564 97.8818 176.249C96.8262 175.62 95.5695 174.779 94.3606 173.935C93.1525 173.092 91.9956 172.248 91.1406 171.615C90.7132 171.299 90.3613 171.035 90.1164 170.851C89.994 170.759 89.8982 170.686 89.8332 170.637C89.8218 170.628 89.8113 170.62 89.8018 170.613Z" fill="#FFCF2D"/>
<path fill-rule="evenodd" clip-rule="evenodd" d="M79.8434 160.597C80.9369 159.396 82.8526 159.866 83.3019 161.415L86.7116 173.178L92.9215 178.146L92.5976 178.551L86.2593 173.48L82.8039 161.559C82.8039 161.559 82.8039 161.559 82.8039 161.559C82.465 160.391 81.0414 160.052 80.2268 160.946L79.8434 160.597Z" fill="#FFCF2D"/>
<path fill-rule="evenodd" clip-rule="evenodd" d="M76.8462 164.061C77.8853 162.914 79.7717 163.357 80.2013 164.837L83.4248 175.969L88.8167 180.356L88.4894 180.758L82.9718 176.269L79.7034 164.981C79.3863 163.889 77.9957 163.564 77.2304 164.409L76.8462 164.061Z" fill="#FFCF2D"/>
<path fill-rule="evenodd" clip-rule="evenodd" d="M78.0242 176.48L83.9975 181.488L83.6644 181.886L77.691 176.877L78.0242 176.48Z" fill="#FFCF2D"/>
<path fill-rule="evenodd" clip-rule="evenodd" d="M99.2307 197.107H92.2515V196.589H99.2307V197.107Z" fill="#FFCF2D"/>
<path d="M111.665 204.698V213.398C108.575 215.037 104.893 216.696 100.88 218.241C95.3838 220.346 90.0431 221.829 85.7394 222.596L88.2283 212.89C90.9868 211.563 94.0771 210.235 97.3438 208.991C102.622 206.979 107.621 205.507 111.665 204.698Z" fill="#FFCF2D"/>
<path fill-rule="evenodd" clip-rule="evenodd" d="M107.483 102.13L104.351 95.2583L104.917 95.0002L108.09 101.961L108.095 102.01C108.416 104.742 106.469 107.208 103.738 107.54L103.737 107.54C101.347 107.82 99.6429 109.988 99.9236 112.379C99.9236 112.379 99.9237 112.379 99.9237 112.38L100.38 116.216L99.762 116.289L99.3057 112.452C98.985 109.721 100.931 107.243 103.664 106.922C106.039 106.633 107.736 104.501 107.483 102.13Z" fill="#FFCF2D"/>
<path d="M141.117 72.9061L157.731 46.9814L100.59 46.5251L81.8715 96.3628L112.775 94.911L141.117 72.9061Z" fill="#FE5244"/>
<path fill-rule="evenodd" clip-rule="evenodd" d="M98.4576 44.0447L158.419 44.7212L158.412 45.3433L98.8852 44.6717L79.1238 96.7742L78.5421 96.5535L98.4576 44.0447Z" fill="#FFCF2D"/>
<path d="M140.091 69.0177C143.409 74.7108 137.768 84.1889 127.481 90.1827C117.193 96.1765 106.169 96.415 102.851 90.7219C102.395 89.9442 102.115 89.1042 101.98 88.202C101.15 82.5089 106.574 74.7315 115.461 69.557C124.349 64.3824 133.786 63.4906 138.328 67.0164C139.044 67.5763 139.635 68.24 140.091 69.0177Z" fill="#66B0F0"/>
<path fill-rule="evenodd" clip-rule="evenodd" d="M128.557 65.3334C124.568 65.7572 120.028 67.2576 115.617 69.8258C111.207 72.394 107.664 75.6036 105.329 78.8661C102.99 82.1353 101.889 85.4216 102.287 88.1565C102.417 89.0232 102.685 89.8245 103.119 90.5645L103.119 90.5652C104.696 93.2694 108.138 94.6199 112.545 94.5238C116.94 94.4279 122.217 92.8893 127.324 89.9139C132.43 86.9384 136.371 83.1053 138.62 79.3282C140.876 75.5408 141.398 71.879 139.822 69.1749C139.387 68.4328 138.822 67.7986 138.136 67.2616C135.954 65.5682 132.553 64.9087 128.557 65.3334ZM128.491 64.7147C132.57 64.2813 136.158 64.9386 138.518 66.7706L138.519 66.7714C139.264 67.3542 139.882 68.0471 140.359 68.8603L140.359 68.8611C142.102 71.8499 141.462 75.7735 139.155 79.6466C136.842 83.5303 132.817 87.4331 127.637 90.4514C122.456 93.4698 117.078 95.0473 112.559 95.1459C108.053 95.2442 104.324 93.8675 102.582 90.8789C102.104 90.0637 101.812 89.1853 101.672 88.248L101.672 88.2469C101.241 85.2889 102.436 81.8402 104.823 78.504C107.215 75.1609 110.828 71.8945 115.304 69.2881C119.781 66.6818 124.404 65.149 128.491 64.7147Z" fill="white"/>
<path fill-rule="evenodd" clip-rule="evenodd" d="M127.757 60.6469C123.351 60.7443 118.065 62.2862 112.957 65.2601C107.844 68.2391 103.897 72.078 101.642 75.8639C99.3821 79.6587 98.8505 83.3425 100.441 86.0704L100.441 86.0704L101.729 88.2818C101.727 88.2671 101.725 88.2524 101.723 88.2377L101.98 88.2023L101.723 88.2392C101.3 85.3002 102.488 81.8652 104.869 78.5346C107.255 75.1982 110.86 71.9365 115.331 69.3333C119.802 66.7301 124.417 65.2 128.496 64.7666C132.568 64.3339 136.141 64.9914 138.487 66.8119L138.488 66.8125C138.499 66.8213 138.51 66.8301 138.521 66.839L137.233 64.6274C135.643 61.8996 132.174 60.5493 127.757 60.6469ZM140.314 68.8869L137.681 64.3663L137.681 64.3663C135.952 61.401 132.245 60.0291 127.746 60.1286C123.236 60.2282 117.866 61.8025 112.697 64.812L112.696 64.8121C107.522 67.8268 103.505 71.7238 101.197 75.5986C98.8942 79.4646 98.2643 83.3663 99.9926 86.3314C99.9927 86.3315 99.9927 86.3315 99.9927 86.3315L102.605 90.8155C102.612 90.8282 102.62 90.8408 102.627 90.8534L103.075 90.5917L103.074 90.591C103.067 90.5791 103.06 90.5672 103.054 90.5552C102.627 89.8173 102.354 89.0218 102.236 88.1669L102.236 88.1661L102.236 88.1654C101.84 85.4114 102.949 82.1111 105.291 78.8362C107.629 75.567 111.175 72.3527 115.592 69.7813C120.008 67.2099 124.554 65.7069 128.551 65.2822C132.555 64.8567 135.972 65.5161 138.168 67.2213C138.859 67.7621 139.428 68.4013 139.867 69.1493L140.315 68.8876L140.314 68.8869Z" fill="white"/>
<path d="M99.1792 130.231C98.7747 131.424 98.3392 132.564 97.8829 133.612C96.9599 133.601 96.0266 133.446 95.114 133.135C94.191 132.823 93.3614 132.388 92.6147 131.838C92.8844 130.729 93.2162 129.557 93.6207 128.364C95.6325 122.391 98.4947 117.974 100.03 118.482C101.564 119 101.181 124.258 99.1792 130.231Z" fill="#FFCF2D"/>
<path fill-rule="evenodd" clip-rule="evenodd" d="M100.237 116.304C99.7156 116.304 99.2931 116.727 99.2931 117.248C99.2931 117.769 99.7156 118.192 100.237 118.192C100.758 118.192 101.181 117.769 101.181 117.248C101.181 116.727 100.758 116.304 100.237 116.304ZM98.6709 117.248C98.6709 116.383 99.372 115.682 100.237 115.682C101.102 115.682 101.803 116.383 101.803 117.248C101.803 118.113 101.102 118.814 100.237 118.814C99.372 118.814 98.6709 118.113 98.6709 117.248Z" fill="#66B0F0"/>
<path d="M46.695 203.555V245.999H0.0698853V183.531C0.982477 186.59 10.741 192.968 22.8536 198.298C35.7439 203.991 46.4254 206.335 46.695 203.555Z" fill="#66B0F0"/>
<path d="M46.6951 202.425C46.4151 205.205 35.744 202.851 22.8537 197.168C10.7411 191.827 0.982595 185.45 0.0700031 182.401C0.00778097 182.204 -0.0129635 182.018 0.00777718 181.852C0.277406 179.073 10.9589 181.427 23.8492 187.109C36.7396 192.792 46.9751 199.646 46.6951 202.425Z" fill="#9A3B82"/>
<path d="M19.1016 141.545C20.2112 139.263 22.5238 137.812 25.0645 137.812H32.3964L32.7801 167.283L37.8927 194.369L39.5208 202.976C35.2068 202.022 29.3164 200.02 22.866 197.179C19.2157 195.572 14.6423 193.187 11.5934 191.507V155.648C11.5934 155.16 11.6868 154.673 11.8527 154.217L19.1016 141.545Z" fill="#A0505A"/>
<path d="M39.5081 202.976C35.194 202.022 29.3036 200.021 22.8533 197.179C19.2029 195.572 14.6296 193.187 11.5807 191.507V182.495C14.9096 183.563 19.8355 185.347 23.8488 187.11C29.2621 189.495 33.991 191.953 37.8903 194.369L39.5081 202.976Z" fill="#73325A"/>
<path d="M66.8136 104.68L27.8106 176.439C26.3692 179.094 22.3973 179.727 18.944 177.85C15.4907 175.973 13.8625 172.302 15.304 169.637L54.3069 97.8772L66.8136 104.68Z" fill="white"/>
<path fill-rule="evenodd" clip-rule="evenodd" d="M54.203 97.5247L67.1651 104.575L28.0385 176.562C27.2713 177.975 25.8387 178.834 24.1725 179.099C22.5065 179.364 20.5927 179.04 18.8202 178.077C15.2998 176.163 13.5385 172.355 15.0759 169.513L15.0762 169.512L54.203 97.5247ZM54.4108 98.228L15.532 169.759C14.1864 172.247 15.6815 175.78 19.0678 177.621C20.7485 178.535 22.5473 178.833 24.091 178.587C25.6344 178.341 26.9084 177.557 27.5828 176.315L66.462 104.783L54.4108 98.228Z" fill="#FFCF2D"/>
<path d="M66.8063 104.697C68.2503 102.04 66.6225 98.3657 63.1705 96.4897C59.7185 94.6137 55.7495 95.2467 54.3055 97.9035C52.8615 100.56 54.4893 104.235 57.9413 106.111C61.3934 107.987 65.3623 107.354 66.8063 104.697Z" fill="#66B0F0"/>
<path fill-rule="evenodd" clip-rule="evenodd" d="M54.533 98.0273C53.1855 100.507 54.6796 104.043 58.0648 105.883C61.4501 107.723 65.2308 107.053 66.5783 104.573C67.9257 102.094 66.4316 98.5573 63.0464 96.7175C59.6612 94.8778 55.8804 95.5482 54.533 98.0273ZM57.8173 106.339C54.2985 104.426 52.5369 100.614 54.0774 97.7798C55.618 94.9453 59.7752 94.3497 63.294 96.262C66.8128 98.1743 68.5744 101.986 67.0338 104.821C65.4933 107.655 61.336 108.251 57.8173 106.339Z" fill="#FFCF2D"/>
<path d="M41.3332 132.149L59.7613 117.102L59.4709 122.453L65.3717 123.926L51.9317 132.222C55.5406 131.599 59.8858 131.091 63.4635 131.371C67.7257 131.703 66.2946 136.691 64.6976 140.953C68.4309 140.59 80.948 133.01 85.6665 134.441C88.5494 135.312 87.5124 141.192 86.6828 144.437C87.8857 144.499 93.9731 144.427 93.9731 144.427L90.7583 147.362L92.5213 150.296C85.6768 150.597 85.5939 149.519 86.4546 144.665C86.5998 139.387 80.7509 144.458 68.2961 147.434C62.1258 148.907 62.9243 144.894 64.4487 140.714C63.8369 138.796 59.2635 136.712 44.5687 140.549L41.3332 132.149Z" fill="#FE5244"/>
<path d="M41.603 141.316C44.6099 141.316 47.0475 138.879 47.0475 135.872C47.0475 132.865 44.6099 130.428 41.603 130.428C38.5961 130.428 36.1586 132.865 36.1586 135.872C36.1586 138.879 38.5961 141.316 41.603 141.316Z" fill="white"/>
<path fill-rule="evenodd" clip-rule="evenodd" d="M41.6031 130.687C38.7394 130.687 36.4179 133.008 36.4179 135.872C36.4179 138.735 38.7394 141.057 41.6031 141.057C44.4668 141.057 46.7883 138.735 46.7883 135.872C46.7883 133.008 44.4668 130.687 41.6031 130.687ZM35.8994 135.872C35.8994 132.722 38.453 130.168 41.6031 130.168C44.7532 130.168 47.3068 132.722 47.3068 135.872C47.3068 139.022 44.7532 141.575 41.6031 141.575C38.453 141.575 35.8994 139.022 35.8994 135.872Z" fill="#FE5244"/>
<path d="M39.7263 137.812V138.154C39.7263 141.638 36.9055 144.469 33.4107 144.469H26.7841V137.812H39.7263Z" fill="#A0505A"/>
<path d="M47.7945 150.598L46.0419 154.704L43.999 159.505L42.8894 162.108L41.199 166.08C41.1575 166.184 41.0953 166.298 41.0434 166.391C41.0434 166.401 41.0331 166.401 41.0331 166.412C40.4938 167.345 39.4464 167.926 38.2953 167.926H24.8657C23.2375 167.926 22.1279 166.381 22.7294 164.96L23.7042 162.668L25.8509 157.628L27.6968 153.283L29.3249 149.467C29.802 148.347 30.9531 147.611 32.239 147.611H45.6686C47.2864 147.632 48.396 149.177 47.7945 150.598Z" fill="#A0505A"/>
<path fill-rule="evenodd" clip-rule="evenodd" d="M30.4979 152.568C29.7014 152.568 28.9622 152.909 28.4506 153.477C28.3548 153.584 28.1909 153.592 28.0845 153.497C27.9781 153.401 27.9694 153.237 28.0652 153.13C28.6736 152.454 29.5522 152.049 30.4979 152.049H43.3261C44.8307 152.049 45.9233 153.347 45.7719 154.732C45.7564 154.874 45.6284 154.977 45.486 154.961C45.3437 154.946 45.2409 154.818 45.2565 154.676C45.3748 153.593 44.5177 152.568 43.3261 152.568H30.4979Z" fill="#73325A"/>
<path fill-rule="evenodd" clip-rule="evenodd" d="M28.641 157.037C27.8904 157.037 27.1993 157.331 26.6984 157.832C26.5972 157.933 26.433 157.933 26.3318 157.832C26.2305 157.731 26.2305 157.567 26.3318 157.465C26.9302 156.867 27.7532 156.518 28.641 156.518H41.4692C43.111 156.518 44.2542 158.048 43.8346 159.564C43.7964 159.702 43.6535 159.783 43.5155 159.744C43.3776 159.706 43.2967 159.563 43.3349 159.425C43.6619 158.244 42.7725 157.037 41.4692 157.037H28.641Z" fill="#73325A"/>
<path fill-rule="evenodd" clip-rule="evenodd" d="M26.5774 162.118C25.8558 162.118 25.183 162.394 24.6812 162.867C24.577 162.965 24.413 162.96 24.3147 162.856C24.2164 162.752 24.2212 162.588 24.3254 162.49C24.9228 161.926 25.7227 161.6 26.5774 161.6H39.4055C41.0938 161.6 42.2722 163.245 41.7242 164.807C41.6768 164.942 41.5289 165.013 41.3937 164.966C41.2586 164.918 41.1875 164.771 41.2349 164.635C41.6617 163.419 40.7453 162.118 39.4055 162.118H26.5774Z" fill="#73325A"/>
<path d="M70.8889 29.9853C71.7497 29.0624 72.6104 28.2017 73.4608 27.4343C74.2904 27.818 75.0786 28.3469 75.7941 29.0105C76.4993 29.6742 77.0904 30.4208 77.5363 31.2193C76.8311 32.1215 76.043 33.0444 75.1823 33.9673C70.8889 38.5819 66.4608 41.4336 65.2682 40.3344C64.086 39.2352 66.5956 34.5999 70.8889 29.9853Z" fill="#FFCF2D"/>
<path d="M40.7534 66.5285L39.3845 67.3788C34.4171 70.4587 24.7416 63.8323 17.7831 52.581C10.8142 41.3297 9.19642 29.7258 14.1534 26.646L15.5638 25.7749L23.9534 50.4552L40.7534 66.5285Z" fill="#66B0F0"/>
<path d="M54.6491 79.8334L40.7528 66.5288L23.9425 50.4452L15.5529 25.7752L8.05511 3.71851L42.9721 31.852L54.6491 79.8334Z" fill="#66B0F0"/>
<path fill-rule="evenodd" clip-rule="evenodd" d="M7.41577 2.80347L43.2497 31.6757L55.2035 80.7944L40.538 66.7534L23.6727 50.6171L15.2586 25.8752L7.41577 2.80347ZM8.69492 4.63315L15.8477 25.6749L24.2128 50.2728L40.9682 66.3038L54.0952 78.8719L42.695 32.0278L8.69492 4.63315Z" fill="white"/>
<path fill-rule="evenodd" clip-rule="evenodd" d="M8.98467 2.53027L44.4218 30.44L56.0412 78.443L55.4364 78.5894L43.8677 30.7956L8.59967 3.01906L8.98467 2.53027Z" fill="#9A3B82"/>
<path fill-rule="evenodd" clip-rule="evenodd" d="M49.1368 42.2737C48.0868 39.0076 44.6914 37.0975 41.3454 37.9093L41.3451 37.9093C37.8205 38.7607 35.6518 42.3153 36.5034 45.8402L35.8985 45.9863C34.9664 42.1278 37.3399 38.2368 41.1989 37.3046C44.8626 36.4159 48.5807 38.5078 49.7297 42.0849L49.7302 42.0865L52.6448 51.4935L52.6449 51.4937C54.1564 56.389 61.2093 56.0112 62.1949 50.9762L63.8748 42.3384L64.4856 42.4572L62.8056 51.0953L62.8055 51.0957C61.6963 56.7623 53.7539 57.1934 52.0504 51.6776M52.0503 51.6773L49.1373 42.2752C49.1372 42.2747 49.137 42.2742 49.1368 42.2737" fill="#FFCF2D"/>
<path fill-rule="evenodd" clip-rule="evenodd" d="M64.5736 40.4386C64.0524 40.4386 63.6299 40.8611 63.6299 41.3823C63.6299 41.9034 64.0524 42.3259 64.5736 42.3259C65.0948 42.3259 65.5173 41.9034 65.5173 41.3823C65.5173 40.8611 65.0948 40.4386 64.5736 40.4386ZM63.0077 41.3823C63.0077 40.5175 63.7088 39.8164 64.5736 39.8164C65.4384 39.8164 66.1395 40.5175 66.1395 41.3823C66.1395 42.247 65.4384 42.9481 64.5736 42.9481C63.7088 42.9481 63.0077 42.247 63.0077 41.3823Z" fill="#66B0F0"/>
</g>
<defs>
<clipPath id="clip0_1_304">
<rect width="354" height="246" fill="white"/>
</clipPath>
</defs>
</svg>
