<svg width="16" height="16" viewBox="0 0 16 16" fill="none" xmlns="http://www.w3.org/2000/svg">
<path fill-rule="evenodd" clip-rule="evenodd" d="M5.66667 1.94808C5.11438 1.94808 4.66667 2.39579 4.66667 2.94808V13.0522C4.66667 13.6045 5.11438 14.0522 5.66667 14.0522H10.3333C10.8856 14.0522 11.3333 13.6045 11.3333 13.0522V2.94808C11.3333 2.39579 10.8856 1.94808 10.3333 1.94808H10.2777L10.1154 2.33771C10.0118 2.58612 9.76912 2.74793 9.5 2.74793H6.5C6.23088 2.74793 5.98816 2.58612 5.88463 2.33771L5.72226 1.94808H5.66667ZM3.33334 2.94808C3.33334 1.65942 4.378 0.614746 5.66667 0.614746H10.3333C11.622 0.614746 12.6667 1.65942 12.6667 2.94808V13.0522C12.6667 14.3409 11.622 15.3856 10.3333 15.3856H5.66667C4.378 15.3856 3.33334 14.3409 3.33334 13.0522V2.94808Z" fill="white"/>
</svg>
