<svg width="130" height="22" viewBox="0 0 130 22" fill="none" xmlns="http://www.w3.org/2000/svg">
<g clip-path="url(#clip0_34_209)">
<path d="M-0.000183105 11.1C-0.000183105 5.00005 3.29982 1.30005 8.69982 1.30005C12.7998 1.30005 16.0998 3.80005 16.6998 7.50005C16.7998 7.90005 16.4998 8.20005 16.0998 8.20005H13.4998C13.1998 8.20005 12.9998 8.00005 12.8998 7.70005C12.3998 5.80005 10.7998 4.60005 8.69982 4.60005C5.79982 4.60005 3.99982 7.10005 3.99982 11.1C3.99982 15.1 5.79982 17.6 8.79982 17.6C10.8998 17.6 12.3998 16.5 12.9998 14.7C13.0998 14.4 13.2998 14.2 13.5998 14.2H16.1998C16.5998 14.2 16.8998 14.6 16.7998 14.9C16.1998 18.5 12.9998 20.9 8.79982 20.9C3.29982 20.9 -0.000183105 17.1 -0.000183105 11.1Z" fill="white"/>
<path d="M24.2995 20.4003H21.3995C21.0995 20.4003 20.8995 20.2003 20.8995 19.9003V2.60031C20.8995 2.20031 21.2995 1.80031 21.6995 1.80031H28.6995C32.7995 1.80031 35.2995 4.1003 35.2995 7.7003C35.2995 9.8003 34.2995 11.7003 32.5995 12.7003C32.1995 12.9003 32.0995 13.4003 32.2995 13.7003L35.3995 19.6003C35.5995 19.9003 35.2995 20.3003 34.9995 20.3003H31.6995C31.4995 20.3003 31.2995 20.2003 31.1995 20.0003L28.2995 14.0003C28.1995 13.7003 27.8995 13.6003 27.5995 13.6003H25.2995C24.9995 13.6003 24.7995 13.8003 24.7995 14.1003V20.0003C24.8995 20.2003 24.5995 20.4003 24.2995 20.4003ZM24.8995 10.2003C24.8995 10.5003 25.0995 10.7003 25.3995 10.7003H28.3995C30.3995 10.7003 31.4995 9.6003 31.4995 7.8003C31.4995 6.0003 30.2995 4.90031 28.3995 4.90031H25.4995C25.1995 4.90031 24.9995 5.1003 24.9995 5.4003V10.2003H24.8995Z" fill="white"/>
<path d="M51.4996 20.4003H40.4996C40.0996 20.4003 39.7996 20.1003 39.7996 19.7003V2.50031C39.7996 2.10031 40.0996 1.80031 40.4996 1.80031H51.4996C51.8996 1.80031 52.1996 2.10031 52.1996 2.50031V4.40031C52.1996 4.80031 51.8996 5.1003 51.4996 5.1003H44.1996C43.8996 5.1003 43.6996 5.3003 43.6996 5.6003V9.0003C43.6996 9.3003 43.8996 9.5003 44.1996 9.5003H50.9996C51.3996 9.5003 51.6996 9.8003 51.6996 10.2003V11.9003C51.6996 12.3003 51.3996 12.6003 50.9996 12.6003H44.1996C43.8996 12.6003 43.6996 12.8003 43.6996 13.1003V16.9003C43.6996 17.2003 43.8996 17.4003 44.1996 17.4003H51.4996C51.8996 17.4003 52.1996 17.7003 52.1996 18.1003V20.0003C52.1996 20.1003 51.8996 20.4003 51.4996 20.4003Z" fill="white"/>
<path d="M66.9997 15.9003H61.2997C60.9997 15.9003 60.7997 16.1003 60.6997 16.3003L59.5997 20.0003C59.4997 20.3003 59.2997 20.4003 58.9997 20.4003H56.3997C55.9997 20.4003 55.6997 20.0003 55.7997 19.6003L61.7997 2.20031C61.8997 2.00031 62.0997 1.80031 62.3997 1.80031H66.0997C66.3997 1.80031 66.5997 2.00031 66.6997 2.20031L72.6997 19.6003C72.7997 20.0003 72.4997 20.4003 72.0997 20.4003H69.1997C68.8997 20.4003 68.6997 20.2003 68.5997 20.0003L67.4997 16.3003C67.4997 16.1003 67.1997 15.9003 66.9997 15.9003ZM62.0997 13.0003H66.1997C66.3997 13.0003 66.4997 12.8003 66.4997 12.6003L64.2997 5.6003H64.0997L61.8997 12.6003C61.7997 12.8003 61.8997 13.0003 62.0997 13.0003Z" fill="white"/>
<path d="M78.9999 19.7007V5.5007C78.9999 5.2007 78.7999 5.00069 78.4999 5.00069H74.0999C73.6999 5.00069 73.2999 4.7007 73.2999 4.2007V2.50069C73.2999 2.1007 73.5999 1.7007 74.0999 1.7007H87.6999C88.0999 1.7007 88.4999 2.00069 88.4999 2.50069V4.2007C88.4999 4.6007 88.1999 5.00069 87.6999 5.00069H83.2999C82.9999 5.00069 82.7999 5.2007 82.7999 5.5007V19.8007C82.7999 20.2007 82.4999 20.5007 82.0999 20.5007H79.5999C79.2999 20.4007 78.9999 20.1007 78.9999 19.7007Z" fill="white"/>
<path d="M103.8 20.4003H92.7997C92.3997 20.4003 92.0997 20.1003 92.0997 19.7003V2.50031C92.0997 2.10031 92.3997 1.80031 92.7997 1.80031H103.8C104.2 1.80031 104.5 2.10031 104.5 2.50031V4.40031C104.5 4.80031 104.2 5.1003 103.8 5.1003H96.4997C96.1997 5.1003 95.9997 5.3003 95.9997 5.6003V9.0003C95.9997 9.3003 96.1997 9.5003 96.4997 9.5003H103.3C103.7 9.5003 104 9.8003 104 10.2003V11.9003C104 12.3003 103.7 12.6003 103.3 12.6003H96.4997C96.1997 12.6003 95.9997 12.8003 95.9997 13.1003V16.9003C95.9997 17.2003 96.1997 17.4003 96.4997 17.4003H103.8C104.2 17.4003 104.5 17.7003 104.5 18.1003V20.0003C104.5 20.1003 104.2 20.4003 103.8 20.4003Z" fill="white"/>
<path d="M117.7 9.70049L111.5 1.60049C111.1 1.20049 110.6 1.00049 110.1 1.00049C109.6 1.00049 109.1 1.20049 108.7 1.60049C108 2.40049 108 3.60049 108.7 4.40049L113.6 11.0005L108.7 17.6005C108 18.4005 108 19.6005 108.7 20.4005C109.1 20.8005 109.6 21.0005 110.1 21.0005C110.6 21.0005 111.1 20.8005 111.5 20.4005L117.7 12.3005C118.4 11.7005 118.4 10.5005 117.7 9.70049Z" fill="#FF3F3A"/>
<path d="M120.343 9.70049L126.543 1.60049C126.943 1.20049 127.443 1.00049 127.943 1.00049C128.443 1.00049 128.943 1.20049 129.343 1.60049C130.043 2.40049 130.043 3.60049 129.343 4.40049L124.443 11.0005L129.343 17.6005C130.043 18.4005 130.043 19.6005 129.343 20.4005C128.943 20.8005 128.443 21.0005 127.943 21.0005C127.443 21.0005 126.943 20.8005 126.543 20.4005L120.343 12.3005C119.643 11.7005 119.643 10.5005 120.343 9.70049Z" fill="#FF3F3A"/>
</g>
<defs>
<clipPath id="clip0_34_209">
<rect width="130" height="22" fill="white"/>
</clipPath>
</defs>
</svg>
