<svg width="16" height="14" viewBox="0 0 16 14" fill="none" xmlns="http://www.w3.org/2000/svg">
<path fill-rule="evenodd" clip-rule="evenodd" d="M7.99959 12.272C4.93355 10.5257 3.22351 8.79004 2.3966 7.2841C1.55026 5.74277 1.6241 4.44459 2.09374 3.52322C3.05905 1.6294 5.80412 1.02382 7.47663 3.13914L7.99955 3.8005L8.52251 3.13917C10.1953 1.02376 12.9405 1.62945 13.9058 3.52322C14.3755 4.44457 14.4493 5.74275 13.6029 7.28408C12.7759 8.79003 11.0658 10.5257 7.99959 12.272ZM7.99961 1.73775C5.64681 -0.497993 2.17588 0.426034 0.905824 2.91772C0.208796 4.28519 0.199274 6.05261 1.22787 7.92585C2.24733 9.78247 4.27994 11.7422 7.67709 13.6199L7.99958 13.7981L8.32207 13.6199C11.7193 11.7422 13.752 9.78248 14.7716 7.92586C15.8002 6.05263 15.7908 4.28521 15.0937 2.91772C13.8237 0.425986 10.3526 -0.497959 7.99961 1.73775Z" fill="#FF3F3A"/>
</svg>
