<svg width="16" height="16" viewBox="0 0 16 16" fill="none" xmlns="http://www.w3.org/2000/svg">
<path fill-rule="evenodd" clip-rule="evenodd" d="M15.1667 11.9998V4.6665C15.1667 3.56193 14.2712 2.6665 13.1667 2.6665L2.83333 2.66651C1.72876 2.66652 0.833328 3.56195 0.833328 4.66651V11.9998C0.833328 13.1044 1.72876 13.9998 2.83333 13.9998L13.1667 13.9998C14.2712 13.9998 15.1667 13.1044 15.1667 11.9998ZM13.8333 6.17281V11.9998C13.8333 12.368 13.5349 12.6665 13.1667 12.6665L2.83333 12.6665C2.46514 12.6665 2.16666 12.368 2.16666 11.9998L2.16666 6.17272L6.87544 9.37469C7.55416 9.83622 8.44596 9.83622 9.12468 9.37469L13.8333 6.17281ZM13.8257 4.56558C13.7771 4.24528 13.5005 3.99984 13.1667 3.99984L2.83333 3.99985C2.49948 3.99985 2.22294 4.24524 2.17427 4.5655L7.62519 8.27212C7.85143 8.42597 8.14869 8.42597 8.37493 8.27212L13.8257 4.56558Z" fill="white"/>
</svg>
