<svg width="18" height="18" viewBox="0 0 18 18" fill="none" xmlns="http://www.w3.org/2000/svg">
<path fill-rule="evenodd" clip-rule="evenodd" d="M9.0002 1.70768C7.38937 1.70768 6.08353 3.01352 6.08353 4.62435C6.08353 6.23518 7.38937 7.54102 9.0002 7.54102C10.611 7.54102 11.9169 6.23518 11.9169 4.62435C11.9169 3.01352 10.611 1.70768 9.0002 1.70768ZM4.41686 4.62435C4.41686 2.09304 6.46889 0.0410156 9.0002 0.0410156C11.5315 0.0410156 13.5835 2.09304 13.5835 4.62435C13.5835 7.15565 11.5315 9.20768 9.0002 9.20768C6.46889 9.20768 4.41686 7.15565 4.41686 4.62435Z" fill="#424551"/>
<path fill-rule="evenodd" clip-rule="evenodd" d="M4.08691 11.7077C3.50914 11.7077 3.05756 11.989 2.87424 12.3932C2.62053 12.9526 2.39078 13.6187 2.33656 14.2503C2.31233 14.5327 2.43007 14.7408 2.5923 14.8416C3.44993 15.3743 5.43719 16.291 9.00019 16.291C12.5632 16.291 14.5505 15.3743 15.4081 14.8416C15.5703 14.7408 15.6881 14.5327 15.6638 14.2503C15.6096 13.6187 15.3799 12.9526 15.1261 12.3932C14.9428 11.989 14.4912 11.7077 13.9135 11.7077H4.08691ZM1.35639 11.7048C1.86301 10.5877 2.99429 10.041 4.08691 10.041H13.9135C15.0061 10.041 16.1374 10.5877 16.644 11.7048C16.935 12.3464 17.2472 13.2089 17.3244 14.1078C17.3946 14.9263 17.0544 15.7809 16.2876 16.2573C15.1596 16.958 12.8665 17.9577 9.00019 17.9577C5.13386 17.9577 2.84078 16.958 1.71283 16.2573C0.945947 15.7809 0.605747 14.9263 0.676001 14.1078C0.753149 13.2089 1.0654 12.3464 1.35639 11.7048Z" fill="#424551"/>
</svg>
